<svg xmlns = "http://www.w3.org/2000/svg" width = "1000" height = "1000">
<g>
<polygon points = "227.863, 19.006 171.783, 29.250 80.765, 0.000 202.675, 0.000 "
fill = "none" stroke = "black"/>
</g>
<g>
<polygon points = "392.296, 330.020 344.484, 231.794 434.573, 225.897 459.648, 229.573 471.777, 281.990 460.075, 325.972 "
fill = "none" stroke = "black"/>
</g>
<g>
<polygon points = "963.875, 161.110 968.013, 165.306 977.518, 180.432 979.329, 185.370 981.917, 199.564 965.830, 221.393 939.076, 197.233 952.839, 161.530 "
fill = "none" stroke = "black"/>
</g>
<g>
<polygon points = "972.896, 278.934 963.630, 230.263 965.830, 221.393 981.917, 199.564 1000.000, 227.504 1000.000, 258.334 "
fill = "none" stroke = "black"/>
</g>
<g>
<polygon points = "999.303, 4.731 997.028, 1.414 996.785, 0.000 1000.000, 0.000 1000.000, 4.861 "
fill = "none" stroke = "black"/>
</g>
<g>
<polygon points = "688.200, 87.378 745.589, 74.245 753.545, 97.415 750.409, 109.377 728.806, 137.901 "
fill = "none" stroke = "black"/>
</g>
<g>
<polygon points = "979.261, 62.865 977.738, 55.806 987.327, 35.495 1000.000, 64.816 1000.000, 78.842 "
fill = "none" stroke = "black"/>
</g>
<g>
<polygon points = "600.099, 309.355 592.602, 247.564 635.106, 206.835 696.171, 219.795 616.368, 355.569 "
fill = "none" stroke = "black"/>
</g>
<g>
<polygon points = "816.558, 29.435 835.281, 33.822 826.794, 48.349 756.166, 51.993 765.879, 37.439 "
fill = "none" stroke = "black"/>
</g>
<g>
<polygon points = "877.651, 811.415 862.877, 900.456 803.741, 951.440 784.249, 918.811 797.064, 871.650 "
fill = "none" stroke = "black"/>
</g>
<g>
<polygon points = "707.009, 19.922 759.114, 31.844 765.879, 37.439 756.166, 51.993 755.236, 52.624 729.106, 48.688 689.772, 30.075 "
fill = "none" stroke = "black"/>
</g>
<g>
<polygon points = "968.965, 625.278 962.722, 629.743 963.557, 625.597 "
fill = "none" stroke = "black"/>
</g>
<g>
<polygon points = "996.243, 618.372 984.350, 723.575 944.744, 731.734 941.726, 697.204 962.722, 629.743 968.965, 625.278 "
fill = "none" stroke = "black"/>
</g>
<g>
<polygon points = "937.984, 391.716 938.980, 411.666 898.672, 492.198 895.397, 490.422 887.384, 344.437 889.614, 339.469 "
fill = "none" stroke = "black"/>
</g>
<g>
<polygon points = "720.673, 4.852 712.510, 6.816 701.665, 6.010 697.974, 0.000 726.374, 0.000 "
fill = "none" stroke = "black"/>
</g>
<g>
<polygon points = "365.846, 365.514 208.564, 371.639 180.679, 329.268 188.319, 301.530 207.504, 283.205 371.497, 333.714 "
fill = "none" stroke = "black"/>
</g>
<g>
<polygon points = "63.045, 676.145 75.402, 656.071 298.443, 567.733 365.678, 641.793 336.322, 717.482 "
fill = "none" stroke = "black"/>
</g>
<g>
<polygon points = "183.036, 299.411 100.755, 213.007 144.733, 184.239 171.005, 176.778 215.375, 190.898 217.806, 262.753 207.504, 283.205 188.319, 301.530 "
fill = "none" stroke = "black"/>
</g>
<g>
<polygon points = "906.527, 886.488 965.393, 810.684 967.174, 813.783 970.187, 832.906 921.469, 941.086 897.321, 939.676 896.693, 928.791 "
fill = "none" stroke = "black"/>
</g>
<g>
<polygon points = "676.148, 766.080 669.740, 638.661 780.042, 688.138 787.763, 720.441 "
fill = "none" stroke = "black"/>
</g>
<g>
<polygon points = "987.327, 35.495 987.850, 32.116 992.727, 26.582 1000.000, 26.125 1000.000, 64.816 "
fill = "none" stroke = "black"/>
</g>
<g>
<polygon points = "910.262, 222.472 912.118, 175.969 937.395, 156.358 952.615, 161.370 952.839, 161.530 939.076, 197.233 "
fill = "none" stroke = "black"/>
</g>
<g>
<polygon points = "528.043, 164.915 473.716, 139.452 468.119, 122.611 474.887, 110.080 597.705, 127.519 565.823, 166.574 "
fill = "none" stroke = "black"/>
</g>
<g>
<polygon points = "600.633, 408.190 674.986, 500.049 653.012, 584.435 650.503, 589.272 633.656, 594.125 558.743, 512.645 "
fill = "none" stroke = "black"/>
</g>
<g>
<polygon points = "187.433, 55.745 197.494, 57.583 280.521, 120.654 269.536, 162.418 264.771, 164.191 185.068, 119.088 "
fill = "none" stroke = "black"/>
</g>
<g>
<polygon points = "448.587, 9.049 360.795, 6.959 359.939, 0.000 528.391, 0.000 "
fill = "none" stroke = "black"/>
</g>
<g>
<polygon points = "35.638, 17.881 155.993, 42.381 155.990, 42.451 0.000, 54.974 0.000, 23.830 "
fill = "none" stroke = "black"/>
</g>
<g>
<polygon points = "771.982, 582.946 779.751, 547.397 851.046, 538.135 854.996, 563.115 836.620, 643.990 793.642, 642.956 "
fill = "none" stroke = "black"/>
</g>
<g>
<polygon points = "828.357, 161.157 855.385, 148.247 876.774, 140.535 884.401, 154.165 886.733, 162.722 876.526, 199.834 837.195, 182.483 "
fill = "none" stroke = "black"/>
</g>
<g>
<polygon points = "918.593, 131.262 909.608, 108.379 931.124, 105.211 952.615, 161.370 937.395, 156.358 "
fill = "none" stroke = "black"/>
</g>
<g>
<polygon points = "536.406, 0.858 484.671, 37.549 432.670, 43.192 424.069, 24.605 448.587, 9.049 528.391, 0.000 535.495, 0.000 "
fill = "none" stroke = "black"/>
</g>
<g>
<polygon points = "980.659, 110.349 982.433, 121.271 965.075, 129.255 938.448, 97.786 937.491, 92.064 941.626, 91.752 "
fill = "none" stroke = "black"/>
</g>
<g>
<polygon points = "620.106, 192.117 674.375, 145.606 718.963, 178.037 697.592, 219.701 696.171, 219.795 635.106, 206.835 "
fill = "none" stroke = "black"/>
</g>
<g>
<polygon points = "262.940, 21.235 262.336, 20.900 360.795, 6.959 448.587, 9.049 424.069, 24.605 "
fill = "none" stroke = "black"/>
</g>
<g>
<polygon points = "980.535, 88.222 976.071, 75.612 975.408, 70.477 979.261, 62.865 1000.000, 78.842 1000.000, 94.407 "
fill = "none" stroke = "black"/>
</g>
<g>
<polygon points = "144.733, 184.239 100.755, 213.007 0.000, 211.201 0.000, 132.572 "
fill = "none" stroke = "black"/>
</g>
<g>
<polygon points = "565.823, 166.574 597.705, 127.519 610.082, 118.206 659.662, 123.422 674.375, 145.606 620.106, 192.117 "
fill = "none" stroke = "black"/>
</g>
<g>
<polygon points = "873.976, 499.199 844.332, 454.991 839.164, 410.790 853.685, 364.676 887.384, 344.437 895.397, 490.422 "
fill = "none" stroke = "black"/>
</g>
<g>
<polygon points = "987.618, 2.999 985.919, 0.000 996.785, 0.000 997.028, 1.414 "
fill = "none" stroke = "black"/>
</g>
<g>
<polygon points = "725.139, 386.044 728.594, 382.684 839.164, 410.790 844.332, 454.991 777.816, 481.143 "
fill = "none" stroke = "black"/>
</g>
<g>
<polygon points = "155.993, 42.381 35.638, 17.881 77.767, 0.000 80.765, 0.000 171.783, 29.250 "
fill = "none" stroke = "black"/>
</g>
<g>
<polygon points = "990.777, 1000.000 983.218, 856.854 1000.000, 847.541 1000.000, 1000.000 "
fill = "none" stroke = "black"/>
</g>
<g>
<polygon points = "549.674, 877.990 614.537, 801.239 664.183, 857.131 678.591, 926.859 633.858, 1000.000 538.784, 1000.000 "
fill = "none" stroke = "black"/>
</g>
<g>
<polygon points = "872.949, 254.565 806.455, 214.307 837.195, 182.483 876.526, 199.834 892.216, 220.837 "
fill = "none" stroke = "black"/>
</g>
<g>
<polygon points = "599.734, 400.949 600.458, 392.668 616.972, 367.851 676.051, 366.470 708.978, 396.196 686.782, 489.206 674.986, 500.049 600.633, 408.190 "
fill = "none" stroke = "black"/>
</g>
<g>
<polygon points = "998.236, 139.523 993.865, 134.856 988.451, 124.143 1000.000, 96.220 1000.000, 140.284 "
fill = "none" stroke = "black"/>
</g>
<g>
<polygon points = "981.890, 856.893 983.218, 856.854 990.777, 1000.000 967.654, 1000.000 975.772, 868.350 "
fill = "none" stroke = "black"/>
</g>
<g>
<polygon points = "896.693, 928.791 897.321, 939.676 866.485, 1000.000 818.820, 1000.000 803.741, 951.440 862.877, 900.456 "
fill = "none" stroke = "black"/>
</g>
<g>
<polygon points = "966.029, 8.431 951.353, 12.112 925.477, 0.000 969.900, 0.000 "
fill = "none" stroke = "black"/>
</g>
<g>
<polygon points = "510.428, 212.608 592.602, 247.564 600.099, 309.355 471.777, 281.990 459.648, 229.573 "
fill = "none" stroke = "black"/>
</g>
<g>
<polygon points = "856.557, 29.152 868.355, 32.969 905.107, 72.070 904.689, 73.262 858.290, 69.841 "
fill = "none" stroke = "black"/>
</g>
<g>
<polygon points = ""
fill = "none" stroke = "black"/>
</g>
<g>
<polygon points = "969.294, 19.890 964.462, 38.361 963.768, 38.443 944.406, 24.991 943.331, 19.986 951.353, 12.112 966.029, 8.431 "
fill = "none" stroke = "black"/>
</g>
<g>
<polygon points = "383.701, 117.785 468.119, 122.611 473.716, 139.452 407.002, 158.884 309.964, 167.952 282.771, 162.221 "
fill = "none" stroke = "black"/>
</g>
<g>
<polygon points = "697.592, 219.701 723.786, 247.759 676.051, 366.470 616.972, 367.851 616.368, 355.569 696.171, 219.795 "
fill = "none" stroke = "black"/>
</g>
<g>
<polygon points = "793.642, 642.956 836.620, 643.990 867.422, 715.164 865.555, 725.354 810.477, 780.641 787.763, 720.441 780.042, 688.138 "
fill = "none" stroke = "black"/>
</g>
<g>
<polygon points = "480.378, 91.622 482.184, 88.768 531.674, 71.903 600.007, 104.374 610.082, 118.206 597.705, 127.519 474.887, 110.080 "
fill = "none" stroke = "black"/>
</g>
<g>
<polygon points = "483.574, 799.303 488.447, 646.583 589.813, 667.645 614.537, 801.239 549.674, 877.990 "
fill = "none" stroke = "black"/>
</g>
<g>
<polygon points = "882.469, 28.078 904.945, 42.604 916.628, 69.011 905.107, 72.070 868.355, 32.969 "
fill = "none" stroke = "black"/>
</g>
<g>
<polygon points = "264.771, 164.191 269.536, 162.418 282.771, 162.221 309.964, 167.952 311.459, 230.700 217.806, 262.753 215.375, 190.898 "
fill = "none" stroke = "black"/>
</g>
<g>
<polygon points = ""
fill = "none" stroke = "black"/>
</g>
<g>
<polygon points = "908.329, 16.994 914.492, 28.358 904.945, 42.604 882.469, 28.078 885.148, 9.152 "
fill = "none" stroke = "black"/>
</g>
<g>
<polygon points = "134.122, 468.416 214.187, 427.604 219.257, 435.417 298.443, 567.733 75.402, 656.071 "
fill = "none" stroke = "black"/>
</g>
<g>
<polygon points = "100.755, 213.007 183.036, 299.411 0.000, 280.776 0.000, 211.201 "
fill = "none" stroke = "black"/>
</g>
<g>
<polygon points = "678.591, 926.859 664.183, 857.131 673.035, 827.016 797.413, 849.955 797.064, 871.650 784.249, 918.811 "
fill = "none" stroke = "black"/>
</g>
<g>
<polygon points = "528.043, 164.915 565.823, 166.574 620.106, 192.117 635.106, 206.835 592.602, 247.564 510.428, 212.608 "
fill = "none" stroke = "black"/>
</g>
<g>
<polygon points = "936.866, 683.292 931.143, 569.026 936.863, 534.192 948.641, 522.729 951.529, 537.997 963.557, 625.597 962.722, 629.743 941.726, 697.204 "
fill = "none" stroke = "black"/>
</g>
<g>
<polygon points = "217.806, 262.753 311.459, 230.700 344.484, 231.794 392.296, 330.020 371.497, 333.714 207.504, 283.205 "
fill = "none" stroke = "black"/>
</g>
<g>
<polygon points = "272.494, 32.147 406.758, 55.064 379.805, 74.146 361.606, 82.437 319.864, 87.221 262.596, 60.927 "
fill = "none" stroke = "black"/>
</g>
<g>
<polygon points = "775.736, 323.712 830.426, 296.738 890.799, 302.917 889.614, 339.469 887.384, 344.437 853.685, 364.676 "
fill = "none" stroke = "black"/>
</g>
<g>
<polygon points = ""
fill = "none" stroke = "black"/>
</g>
<g>
<polygon points = "538.555, 1.806 531.674, 71.903 482.184, 88.768 484.671, 37.549 536.406, 0.858 "
fill = "none" stroke = "black"/>
</g>
<g>
<polygon points = "981.917, 199.564 979.329, 185.370 985.651, 183.888 1000.000, 203.540 1000.000, 227.504 "
fill = "none" stroke = "black"/>
</g>
<g>
<polygon points = "987.510, 494.963 972.875, 403.234 977.811, 379.953 1000.000, 395.214 1000.000, 476.421 "
fill = "none" stroke = "black"/>
</g>
<g>
<polygon points = "598.904, 18.083 663.655, 75.050 606.272, 75.948 540.552, 2.469 "
fill = "none" stroke = "black"/>
</g>
<g>
<polygon points = "780.190, 228.018 830.426, 296.738 775.736, 323.712 766.493, 324.204 728.212, 249.408 "
fill = "none" stroke = "black"/>
</g>
<g>
<polygon points = "855.809, 81.818 858.290, 69.841 904.689, 73.262 898.856, 101.939 884.944, 104.023 "
fill = "none" stroke = "black"/>
</g>
<g>
<polygon points = "155.990, 42.451 162.306, 49.956 136.798, 75.799 0.000, 60.797 0.000, 54.974 "
fill = "none" stroke = "black"/>
</g>
<g>
<polygon points = "97.475, 112.769 171.005, 176.778 144.733, 184.239 0.000, 132.572 0.000, 91.745 "
fill = "none" stroke = "black"/>
</g>
<g>
<polygon points = ""
fill = "none" stroke = "black"/>
</g>
<g>
<polygon points = "755.270, 53.366 797.990, 80.187 813.473, 100.831 810.970, 108.015 753.545, 97.415 745.589, 74.245 "
fill = "none" stroke = "black"/>
</g>
<g>
<polygon points = "926.749, 38.812 914.492, 28.358 908.329, 16.994 913.056, 13.849 943.331, 19.986 944.406, 24.991 "
fill = "none" stroke = "black"/>
</g>
<g>
<polygon points = "954.554, 343.848 965.148, 397.885 962.558, 504.697 956.510, 507.067 938.980, 411.666 937.984, 391.716 "
fill = "none" stroke = "black"/>
</g>
<g>
<polygon points = "476.781, 584.773 462.763, 627.893 365.678, 641.793 298.443, 567.733 219.257, 435.417 "
fill = "none" stroke = "black"/>
</g>
<g>
<polygon points = "462.763, 627.893 476.781, 584.773 503.995, 523.036 558.743, 512.645 633.656, 594.125 589.813, 667.645 488.447, 646.583 "
fill = "none" stroke = "black"/>
</g>
<g>
<polygon points = "855.779, 28.591 856.557, 29.152 858.290, 69.841 855.809, 81.818 855.677, 81.781 833.371, 59.488 826.794, 48.349 835.281, 33.822 "
fill = "none" stroke = "black"/>
</g>
<g>
<polygon points = "985.474, 725.341 974.070, 799.717 967.174, 813.783 965.393, 810.684 942.164, 750.459 944.744, 731.734 984.350, 723.575 "
fill = "none" stroke = "black"/>
</g>
<g>
<polygon points = "728.212, 249.408 766.493, 324.204 728.594, 382.684 725.139, 386.044 708.978, 396.196 676.051, 366.470 723.786, 247.759 "
fill = "none" stroke = "black"/>
</g>
<g>
<polygon points = "600.007, 104.374 606.272, 75.948 663.655, 75.050 674.263, 81.148 675.472, 83.064 659.662, 123.422 610.082, 118.206 "
fill = "none" stroke = "black"/>
</g>
<g>
<polygon points = "956.317, 64.063 975.408, 70.477 976.071, 75.612 941.626, 91.752 937.491, 92.064 931.221, 76.031 "
fill = "none" stroke = "black"/>
</g>
<g>
<polygon points = "871.516, 710.768 867.422, 715.164 836.620, 643.990 854.996, 563.115 905.770, 586.162 "
fill = "none" stroke = "black"/>
</g>
<g>
<polygon points = "884.401, 154.165 876.774, 140.535 884.944, 104.023 898.856, 101.939 909.608, 108.379 918.593, 131.262 "
fill = "none" stroke = "black"/>
</g>
<g>
<polygon points = "938.448, 97.786 965.075, 129.255 963.875, 161.110 952.839, 161.530 952.615, 161.370 931.124, 105.211 "
fill = "none" stroke = "black"/>
</g>
<g>
<polygon points = "678.591, 926.859 784.249, 918.811 803.741, 951.440 818.820, 1000.000 633.858, 1000.000 "
fill = "none" stroke = "black"/>
</g>
<g>
<polygon points = ""
fill = "none" stroke = "black"/>
</g>
<g>
<polygon points = "886.733, 162.722 884.401, 154.165 918.593, 131.262 937.395, 156.358 912.118, 175.969 "
fill = "none" stroke = "black"/>
</g>
<g>
<polygon points = "909.527, 223.711 892.216, 220.837 876.526, 199.834 886.733, 162.722 912.118, 175.969 910.262, 222.472 "
fill = "none" stroke = "black"/>
</g>
<g>
<polygon points = "985.651, 183.888 1000.000, 149.378 1000.000, 203.540 "
fill = "none" stroke = "black"/>
</g>
<g>
<polygon points = "800.294, 160.776 745.033, 179.124 731.077, 174.358 728.806, 137.901 750.409, 109.377 "
fill = "none" stroke = "black"/>
</g>
<g>
<polygon points = "462.763, 627.893 488.447, 646.583 483.574, 799.303 336.481, 811.202 336.322, 717.482 365.678, 641.793 "
fill = "none" stroke = "black"/>
</g>
<g>
<polygon points = "981.890, 856.893 978.143, 863.909 970.187, 832.906 967.174, 813.783 974.070, 799.717 "
fill = "none" stroke = "black"/>
</g>
<g>
<polygon points = "766.493, 324.204 775.736, 323.712 853.685, 364.676 839.164, 410.790 728.594, 382.684 "
fill = "none" stroke = "black"/>
</g>
<g>
<polygon points = "797.413, 849.955 810.477, 780.641 865.555, 725.354 894.647, 783.578 877.651, 811.415 797.064, 871.650 "
fill = "none" stroke = "black"/>
</g>
<g>
<polygon points = "249.849, 823.912 331.754, 825.076 488.786, 1000.000 93.758, 1000.000 "
fill = "none" stroke = "black"/>
</g>
<g>
<polygon points = "989.991, 5.794 987.641, 3.048 987.618, 2.999 997.028, 1.414 999.303, 4.731 "
fill = "none" stroke = "black"/>
</g>
<g>
<polygon points = "183.036, 299.411 188.319, 301.530 180.679, 329.268 0.000, 381.158 0.000, 280.776 "
fill = "none" stroke = "black"/>
</g>
<g>
<polygon points = "771.982, 582.946 793.642, 642.956 780.042, 688.138 669.740, 638.661 650.503, 589.272 653.012, 584.435 "
fill = "none" stroke = "black"/>
</g>
<g>
<polygon points = "674.263, 81.148 663.655, 75.050 598.904, 18.083 634.739, 22.270 648.507, 26.501 679.509, 67.645 "
fill = "none" stroke = "black"/>
</g>
<g>
<polygon points = "895.021, 301.798 953.521, 331.971 954.617, 342.747 954.554, 343.848 937.984, 391.716 889.614, 339.469 890.799, 302.917 891.088, 302.355 "
fill = "none" stroke = "black"/>
</g>
<g>
<polygon points = "247.897, 55.499 262.596, 60.927 319.864, 87.221 280.521, 120.654 197.494, 57.583 "
fill = "none" stroke = "black"/>
</g>
<g>
<polygon points = "985.474, 725.341 984.350, 723.575 996.243, 618.372 1000.000, 611.385 1000.000, 703.009 "
fill = "none" stroke = "black"/>
</g>
<g>
<polygon points = "361.606, 82.437 379.805, 74.146 480.378, 91.622 474.887, 110.080 468.119, 122.611 383.701, 117.785 "
fill = "none" stroke = "black"/>
</g>
<g>
<polygon points = "891.088, 302.355 890.799, 302.917 830.426, 296.738 780.190, 228.018 791.936, 213.746 806.455, 214.307 872.949, 254.565 "
fill = "none" stroke = "black"/>
</g>
<g>
<polygon points = "945.968, 957.780 977.556, 892.527 988.611, 1000.000 955.278, 1000.000 "
fill = "none" stroke = "black"/>
</g>
<g>
<polygon points = "97.475, 112.769 123.070, 96.080 185.068, 119.088 264.771, 164.191 215.375, 190.898 171.005, 176.778 "
fill = "none" stroke = "black"/>
</g>
<g>
<polygon points = "885.148, 9.152 882.469, 28.078 868.355, 32.969 856.557, 29.152 855.779, 28.591 867.602, 0.000 873.631, 0.000 "
fill = "none" stroke = "black"/>
</g>
<g>
<polygon points = "540.552, 2.469 606.272, 75.948 600.007, 104.374 531.674, 71.903 538.555, 1.806 "
fill = "none" stroke = "black"/>
</g>
<g>
<polygon points = "63.045, 676.145 336.322, 717.482 336.481, 811.202 331.754, 825.076 249.849, 823.912 0.000, 723.025 0.000, 721.324 "
fill = "none" stroke = "black"/>
</g>
<g>
<polygon points = "360.795, 6.959 262.336, 20.900 227.863, 19.006 202.675, 0.000 359.939, 0.000 "
fill = "none" stroke = "black"/>
</g>
<g>
<polygon points = "992.727, 26.582 987.850, 32.116 975.241, 21.589 987.641, 3.048 989.991, 5.794 "
fill = "none" stroke = "black"/>
</g>
<g>
<polygon points = "262.336, 20.900 262.940, 21.235 264.557, 29.089 247.897, 55.499 197.494, 57.583 187.433, 55.745 162.306, 49.956 155.990, 42.451 155.993, 42.381 171.783, 29.250 227.863, 19.006 "
fill = "none" stroke = "black"/>
</g>
<g>
<polygon points = "963.485, 299.051 959.740, 304.066 924.884, 263.923 923.174, 251.834 963.630, 230.263 972.896, 278.934 "
fill = "none" stroke = "black"/>
</g>
<g>
<polygon points = "898.856, 101.939 904.689, 73.262 905.107, 72.070 916.628, 69.011 929.899, 74.403 931.221, 76.031 937.491, 92.064 938.448, 97.786 931.124, 105.211 909.608, 108.379 "
fill = "none" stroke = "black"/>
</g>
<g>
<polygon points = "964.462, 38.361 969.294, 19.890 975.241, 21.589 987.850, 32.116 987.327, 35.495 977.738, 55.806 "
fill = "none" stroke = "black"/>
</g>
<g>
<polygon points = "952.926, 48.847 931.376, 47.916 926.749, 38.812 944.406, 24.991 963.768, 38.443 "
fill = "none" stroke = "black"/>
</g>
<g>
<polygon points = "731.077, 174.358 745.033, 179.124 791.936, 213.746 780.190, 228.018 728.212, 249.408 723.786, 247.759 697.592, 219.701 718.963, 178.037 "
fill = "none" stroke = "black"/>
</g>
<g>
<polygon points = "996.243, 618.372 968.965, 625.278 963.557, 625.597 951.529, 537.997 970.590, 509.476 985.089, 517.229 1000.000, 545.379 1000.000, 611.385 "
fill = "none" stroke = "black"/>
</g>
<g>
<polygon points = "35.638, 17.881 0.000, 23.830 0.000, 0.000 77.767, 0.000 "
fill = "none" stroke = "black"/>
</g>
<g>
<polygon points = "913.725, 778.782 906.527, 886.488 896.693, 928.791 862.877, 900.456 877.651, 811.415 894.647, 783.578 "
fill = "none" stroke = "black"/>
</g>
<g>
<polygon points = "431.991, 412.243 459.954, 487.199 216.542, 398.733 208.564, 371.639 365.846, 365.514 "
fill = "none" stroke = "black"/>
</g>
<g>
<polygon points = "992.727, 26.582 989.991, 5.794 999.303, 4.731 1000.000, 4.861 1000.000, 26.125 "
fill = "none" stroke = "black"/>
</g>
<g>
<polygon points = "956.317, 64.063 952.926, 48.847 963.768, 38.443 964.462, 38.361 977.738, 55.806 979.261, 62.865 975.408, 70.477 "
fill = "none" stroke = "black"/>
</g>
<g>
<polygon points = "379.805, 74.146 406.758, 55.064 432.670, 43.192 484.671, 37.549 482.184, 88.768 480.378, 91.622 "
fill = "none" stroke = "black"/>
</g>
<g>
<polygon points = "600.099, 309.355 616.368, 355.569 616.972, 367.851 600.458, 392.668 460.075, 325.972 471.777, 281.990 "
fill = "none" stroke = "black"/>
</g>
<g>
<polygon points = "978.143, 863.909 977.556, 892.527 945.968, 957.780 921.469, 941.086 970.187, 832.906 "
fill = "none" stroke = "black"/>
</g>
<g>
<polygon points = "968.013, 165.306 963.875, 161.110 965.075, 129.255 982.433, 121.271 988.451, 124.143 993.865, 134.856 "
fill = "none" stroke = "black"/>
</g>
<g>
<polygon points = "945.968, 957.780 955.278, 1000.000 866.485, 1000.000 897.321, 939.676 921.469, 941.086 "
fill = "none" stroke = "black"/>
</g>
<g>
<polygon points = "136.798, 75.799 123.070, 96.080 97.475, 112.769 0.000, 91.745 0.000, 60.797 "
fill = "none" stroke = "black"/>
</g>
<g>
<polygon points = "985.089, 517.229 987.510, 494.963 1000.000, 476.421 1000.000, 545.379 "
fill = "none" stroke = "black"/>
</g>
<g>
<polygon points = "983.218, 856.854 981.890, 856.893 974.070, 799.717 985.474, 725.341 1000.000, 703.009 1000.000, 847.541 "
fill = "none" stroke = "black"/>
</g>
<g>
<polygon points = "977.811, 379.953 972.768, 364.911 990.803, 285.609 1000.000, 275.858 1000.000, 395.214 "
fill = "none" stroke = "black"/>
</g>
<g>
<polygon points = "216.542, 398.733 459.954, 487.199 503.995, 523.036 476.781, 584.773 219.257, 435.417 214.187, 427.604 "
fill = "none" stroke = "black"/>
</g>
<g>
<polygon points = "797.413, 849.955 673.035, 827.016 676.148, 766.080 787.763, 720.441 810.477, 780.641 "
fill = "none" stroke = "black"/>
</g>
<g>
<polygon points = "701.665, 6.010 634.739, 22.270 598.904, 18.083 540.552, 2.469 538.555, 1.806 536.406, 0.858 535.495, 0.000 697.974, 0.000 "
fill = "none" stroke = "black"/>
</g>
<g>
<polygon points = "985.089, 517.229 970.590, 509.476 962.558, 504.697 965.148, 397.885 972.875, 403.234 987.510, 494.963 "
fill = "none" stroke = "black"/>
</g>
<g>
<polygon points = "311.459, 230.700 309.964, 167.952 407.002, 158.884 434.573, 225.897 344.484, 231.794 "
fill = "none" stroke = "black"/>
</g>
<g>
<polygon points = "972.768, 364.911 977.811, 379.953 972.875, 403.234 965.148, 397.885 954.554, 343.848 954.617, 342.747 "
fill = "none" stroke = "black"/>
</g>
<g>
<polygon points = "924.884, 263.923 959.740, 304.066 953.521, 331.971 895.021, 301.798 "
fill = "none" stroke = "black"/>
</g>
<g>
<polygon points = "679.509, 67.645 648.507, 26.501 689.772, 30.075 729.106, 48.688 "
fill = "none" stroke = "black"/>
</g>
<g>
<polygon points = "951.353, 12.112 943.331, 19.986 913.056, 13.849 918.532, 0.000 925.477, 0.000 "
fill = "none" stroke = "black"/>
</g>
<g>
<polygon points = "826.595, 6.380 814.191, 0.000 843.390, 0.000 "
fill = "none" stroke = "black"/>
</g>
<g>
<polygon points = "600.458, 392.668 599.734, 400.949 431.991, 412.243 365.846, 365.514 371.497, 333.714 392.296, 330.020 460.075, 325.972 "
fill = "none" stroke = "black"/>
</g>
<g>
<polygon points = "855.779, 28.591 835.281, 33.822 816.558, 29.435 826.595, 6.380 843.390, 0.000 867.602, 0.000 "
fill = "none" stroke = "black"/>
</g>
<g>
<polygon points = "407.002, 158.884 473.716, 139.452 528.043, 164.915 510.428, 212.608 459.648, 229.573 434.573, 225.897 "
fill = "none" stroke = "black"/>
</g>
<g>
<polygon points = "931.376, 47.916 952.926, 48.847 956.317, 64.063 931.221, 76.031 929.899, 74.403 "
fill = "none" stroke = "black"/>
</g>
<g>
<polygon points = ""
fill = "none" stroke = "black"/>
</g>
<g>
<polygon points = "264.557, 29.089 272.494, 32.147 262.596, 60.927 247.897, 55.499 "
fill = "none" stroke = "black"/>
</g>
<g>
<polygon points = "970.590, 509.476 951.529, 537.997 948.641, 522.729 956.510, 507.067 962.558, 504.697 "
fill = "none" stroke = "black"/>
</g>
<g>
<polygon points = "331.754, 825.076 336.481, 811.202 483.574, 799.303 549.674, 877.990 538.784, 1000.000 488.786, 1000.000 "
fill = "none" stroke = "black"/>
</g>
<g>
<polygon points = "977.518, 180.432 968.013, 165.306 993.865, 134.856 998.236, 139.523 "
fill = "none" stroke = "black"/>
</g>
<g>
<polygon points = "987.618, 2.999 987.641, 3.048 975.241, 21.589 969.294, 19.890 966.029, 8.431 969.900, 0.000 985.919, 0.000 "
fill = "none" stroke = "black"/>
</g>
<g>
<polygon points = "745.033, 179.124 800.294, 160.776 827.627, 160.650 828.357, 161.157 837.195, 182.483 806.455, 214.307 791.936, 213.746 "
fill = "none" stroke = "black"/>
</g>
<g>
<polygon points = "264.557, 29.089 262.940, 21.235 424.069, 24.605 432.670, 43.192 406.758, 55.064 272.494, 32.147 "
fill = "none" stroke = "black"/>
</g>
<g>
<polygon points = "990.803, 285.609 972.768, 364.911 954.617, 342.747 953.521, 331.971 959.740, 304.066 963.485, 299.051 "
fill = "none" stroke = "black"/>
</g>
<g>
<polygon points = "180.679, 329.268 208.564, 371.639 216.542, 398.733 214.187, 427.604 134.122, 468.416 0.000, 433.425 0.000, 381.158 "
fill = "none" stroke = "black"/>
</g>
<g>
<polygon points = "976.071, 75.612 980.535, 88.222 980.659, 110.349 941.626, 91.752 "
fill = "none" stroke = "black"/>
</g>
<g>
<polygon points = "756.909, 29.021 720.673, 4.852 726.374, 0.000 761.246, 0.000 "
fill = "none" stroke = "black"/>
</g>
<g>
<polygon points = "701.665, 6.010 712.510, 6.816 707.009, 19.922 689.772, 30.075 648.507, 26.501 634.739, 22.270 "
fill = "none" stroke = "black"/>
</g>
<g>
<polygon points = "956.510, 507.067 948.641, 522.729 936.863, 534.192 898.672, 492.198 938.980, 411.666 "
fill = "none" stroke = "black"/>
</g>
<g>
<polygon points = "675.472, 83.064 674.263, 81.148 679.509, 67.645 729.106, 48.688 755.236, 52.624 755.270, 53.366 745.589, 74.245 688.200, 87.378 "
fill = "none" stroke = "black"/>
</g>
<g>
<polygon points = "923.174, 251.834 924.884, 263.923 895.021, 301.798 891.088, 302.355 872.949, 254.565 892.216, 220.837 909.527, 223.711 "
fill = "none" stroke = "black"/>
</g>
<g>
<polygon points = "589.813, 667.645 633.656, 594.125 650.503, 589.272 669.740, 638.661 676.148, 766.080 673.035, 827.016 664.183, 857.131 614.537, 801.239 "
fill = "none" stroke = "black"/>
</g>
<g>
<polygon points = "757.307, 520.106 777.816, 481.143 844.332, 454.991 873.976, 499.199 851.046, 538.135 779.751, 547.397 "
fill = "none" stroke = "black"/>
</g>
<g>
<polygon points = "990.803, 285.609 963.485, 299.051 972.896, 278.934 1000.000, 258.334 1000.000, 275.858 "
fill = "none" stroke = "black"/>
</g>
<g>
<polygon points = "914.492, 28.358 926.749, 38.812 931.376, 47.916 929.899, 74.403 916.628, 69.011 904.945, 42.604 "
fill = "none" stroke = "black"/>
</g>
<g>
<polygon points = "134.122, 468.416 75.402, 656.071 63.045, 676.145 0.000, 721.324 0.000, 433.425 "
fill = "none" stroke = "black"/>
</g>
<g>
<polygon points = "913.725, 778.782 894.647, 783.578 865.555, 725.354 867.422, 715.164 871.516, 710.768 936.866, 683.292 941.726, 697.204 944.744, 731.734 942.164, 750.459 "
fill = "none" stroke = "black"/>
</g>
<g>
<polygon points = "686.782, 489.206 757.307, 520.106 779.751, 547.397 771.982, 582.946 653.012, 584.435 674.986, 500.049 "
fill = "none" stroke = "black"/>
</g>
<g>
<polygon points = "810.970, 108.015 827.627, 160.650 800.294, 160.776 750.409, 109.377 753.545, 97.415 "
fill = "none" stroke = "black"/>
</g>
<g>
<polygon points = "963.630, 230.263 923.174, 251.834 909.527, 223.711 910.262, 222.472 939.076, 197.233 965.830, 221.393 "
fill = "none" stroke = "black"/>
</g>
<g>
<polygon points = "123.070, 96.080 136.798, 75.799 162.306, 49.956 187.433, 55.745 185.068, 119.088 "
fill = "none" stroke = "black"/>
</g>
<g>
<polygon points = "942.164, 750.459 965.393, 810.684 906.527, 886.488 913.725, 778.782 "
fill = "none" stroke = "black"/>
</g>
<g>
<polygon points = "319.864, 87.221 361.606, 82.437 383.701, 117.785 282.771, 162.221 269.536, 162.418 280.521, 120.654 "
fill = "none" stroke = "black"/>
</g>
<g>
<polygon points = "936.863, 534.192 931.143, 569.026 905.770, 586.162 854.996, 563.115 851.046, 538.135 873.976, 499.199 895.397, 490.422 898.672, 492.198 "
fill = "none" stroke = "black"/>
</g>
<g>
<polygon points = "686.782, 489.206 708.978, 396.196 725.139, 386.044 777.816, 481.143 757.307, 520.106 "
fill = "none" stroke = "black"/>
</g>
<g>
<polygon points = "985.651, 183.888 979.329, 185.370 977.518, 180.432 998.236, 139.523 1000.000, 140.284 1000.000, 149.378 "
fill = "none" stroke = "black"/>
</g>
<g>
<polygon points = "844.961, 87.731 813.473, 100.831 797.990, 80.187 833.371, 59.488 855.677, 81.781 "
fill = "none" stroke = "black"/>
</g>
<g>
<polygon points = "826.595, 6.380 816.558, 29.435 765.879, 37.439 759.114, 31.844 756.909, 29.021 761.246, 0.000 814.191, 0.000 "
fill = "none" stroke = "black"/>
</g>
<g>
<polygon points = "913.056, 13.849 908.329, 16.994 885.148, 9.152 873.631, 0.000 918.532, 0.000 "
fill = "none" stroke = "black"/>
</g>
<g>
<polygon points = ""
fill = "none" stroke = "black"/>
</g>
<g>
<polygon points = "844.961, 87.731 855.677, 81.781 855.809, 81.818 884.944, 104.023 876.774, 140.535 855.385, 148.247 "
fill = "none" stroke = "black"/>
</g>
<g>
<polygon points = "988.451, 124.143 982.433, 121.271 980.659, 110.349 980.535, 88.222 1000.000, 94.407 1000.000, 96.220 "
fill = "none" stroke = "black"/>
</g>
<g>
<polygon points = ""
fill = "none" stroke = "black"/>
</g>
<g>
<polygon points = "756.909, 29.021 759.114, 31.844 707.009, 19.922 712.510, 6.816 720.673, 4.852 "
fill = "none" stroke = "black"/>
</g>
<g>
<polygon points = "249.849, 823.912 93.758, 1000.000 0.000, 1000.000 0.000, 723.025 "
fill = "none" stroke = "black"/>
</g>
<g>
<polygon points = "871.516, 710.768 905.770, 586.162 931.143, 569.026 936.866, 683.292 "
fill = "none" stroke = "black"/>
</g>
<g>
<polygon points = "827.627, 160.650 810.970, 108.015 813.473, 100.831 844.961, 87.731 855.385, 148.247 828.357, 161.157 "
fill = "none" stroke = "black"/>
</g>
<g>
<polygon points = "599.734, 400.949 600.633, 408.190 558.743, 512.645 503.995, 523.036 459.954, 487.199 431.991, 412.243 "
fill = "none" stroke = "black"/>
</g>
<g>
<polygon points = "797.990, 80.187 755.270, 53.366 755.236, 52.624 756.166, 51.993 826.794, 48.349 833.371, 59.488 "
fill = "none" stroke = "black"/>
</g>
<g>
<polygon points = "731.077, 174.358 718.963, 178.037 674.375, 145.606 659.662, 123.422 675.472, 83.064 688.200, 87.378 728.806, 137.901 "
fill = "none" stroke = "black"/>
</g>
<g>
<circle cx = "85.032" cy = "108.389" r = "3" />
<circle cx = "189.690" cy = "601.992" r = "3" />
<circle cx = "743.512" cy = "439.610" r = "3" />
<circle cx = "809.567" cy = "488.287" r = "3" />
<circle cx = "995.085" cy = "33.389" r = "3" />
<circle cx = "426.051" cy = "347.001" r = "3" />
<circle cx = "961.533" cy = "142.013" r = "3" />
<circle cx = "294.026" cy = "585.355" r = "3" />
<circle cx = "514.893" cy = "210.215" r = "3" />
<circle cx = "544.273" cy = "906.370" r = "3" />
<circle cx = "432.260" cy = "155.073" r = "3" />
<circle cx = "772.846" cy = "808.141" r = "3" />
<circle cx = "780.367" cy = "818.657" r = "3" />
<circle cx = "579.141" cy = "685.869" r = "3" />
<circle cx = "411.985" cy = "7.695" r = "3" />
<circle cx = "163.922" cy = "665.152" r = "3" />
<circle cx = "76.218" cy = "825.476" r = "3" />
<circle cx = "37.300" cy = "532.585" r = "3" />
<circle cx = "674.113" cy = "933.297" r = "3" />
<circle cx = "389.782" cy = "834.601" r = "3" />
<circle cx = "990.804" cy = "129.361" r = "3" />
<circle cx = "672.653" cy = "412.294" r = "3" />
<circle cx = "255.014" cy = "406.955" r = "3" />
<circle cx = "271.720" cy = "729.519" r = "3" />
<circle cx = "95.930" cy = "367.444" r = "3" />
<circle cx = "151.273" cy = "51.138" r = "3" />
<circle cx = "42.604" cy = "264.911" r = "3" />
<circle cx = "465.497" cy = "777.460" r = "3" />
<circle cx = "571.484" cy = "395.431" r = "3" />
<circle cx = "698.002" cy = "335.314" r = "3" />
<circle cx = "173.652" cy = "248.505" r = "3" />
<circle cx = "824.917" cy = "246.904" r = "3" />
<circle cx = "319.049" cy = "467.449" r = "3" />
<circle cx = "147.554" cy = "207.372" r = "3" />
<circle cx = "912.531" cy = "205.619" r = "3" />
<circle cx = "9.408" cy = "489.947" r = "3" />
<circle cx = "295.594" cy = "440.081" r = "3" />
<circle cx = "504.173" cy = "689.984" r = "3" />
<circle cx = "982.579" cy = "35.545" r = "3" />
<circle cx = "448.564" cy = "696.486" r = "3" />
<circle cx = "56.208" cy = "198.081" r = "3" />
<circle cx = "983.813" cy = "948.937" r = "3" />
<circle cx = "239.803" cy = "895.301" r = "3" />
<circle cx = "534.797" cy = "478.593" r = "3" />
<circle cx = "329.979" cy = "682.362" r = "3" />
<circle cx = "977.858" cy = "264.913" r = "3" />
<circle cx = "953.617" cy = "950.532" r = "3" />
<circle cx = "572.538" cy = "939.155" r = "3" />
<circle cx = "811.628" cy = "20.814" r = "3" />
<circle cx = "225.825" cy = "593.631" r = "3" />
<circle cx = "619.046" cy = "245.444" r = "3" />
<circle cx = "915.988" cy = "963.508" r = "3" />
<circle cx = "830.576" cy = "96.357" r = "3" />
<circle cx = "175.992" cy = "433.217" r = "3" />
<circle cx = "328.182" cy = "605.431" r = "3" />
<circle cx = "464.552" cy = "816.732" r = "3" />
<circle cx = "257.500" cy = "389.451" r = "3" />
<circle cx = "196.504" cy = "858.707" r = "3" />
<circle cx = "669.344" cy = "198.167" r = "3" />
<circle cx = "155.896" cy = "528.572" r = "3" />
<circle cx = "255.728" cy = "6.022" r = "3" />
<circle cx = "698.761" cy = "152.649" r = "3" />
<circle cx = "69.381" cy = "808.214" r = "3" />
<circle cx = "8.147" cy = "560.347" r = "3" />
<circle cx = "389.613" cy = "864.343" r = "3" />
<circle cx = "249.231" cy = "538.608" r = "3" />
<circle cx = "698.389" cy = "793.143" r = "3" />
<circle cx = "182.262" cy = "605.607" r = "3" />
<circle cx = "142.462" cy = "284.348" r = "3" />
<circle cx = "473.120" cy = "638.280" r = "3" />
<circle cx = "0.310" cy = "27.891" r = "3" />
<circle cx = "242.597" cy = "345.720" r = "3" />
<circle cx = "940.200" cy = "403.743" r = "3" />
<circle cx = "903.858" cy = "668.468" r = "3" />
<circle cx = "304.043" cy = "324.602" r = "3" />
<circle cx = "449.785" cy = "590.968" r = "3" />
<circle cx = "618.305" cy = "255.495" r = "3" />
<circle cx = "47.345" cy = "323.963" r = "3" />
<circle cx = "18.198" cy = "465.325" r = "3" />
<circle cx = "938.174" cy = "621.956" r = "3" />
<circle cx = "492.311" cy = "324.249" r = "3" />
<circle cx = "784.188" cy = "106.318" r = "3" />
<circle cx = "727.119" cy = "678.486" r = "3" />
<circle cx = "145.237" cy = "762.817" r = "3" />
<circle cx = "211.923" cy = "784.497" r = "3" />
<circle cx = "578.177" cy = "247.184" r = "3" />
<circle cx = "790.235" cy = "866.562" r = "3" />
<circle cx = "380.455" cy = "626.450" r = "3" />
<circle cx = "304.522" cy = "355.201" r = "3" />
<circle cx = "822.678" cy = "217.212" r = "3" />
<circle cx = "524.381" cy = "790.840" r = "3" />
<circle cx = "634.027" cy = "360.433" r = "3" />
<circle cx = "738.946" cy = "319.646" r = "3" />
<circle cx = "399.406" cy = "992.914" r = "3" />
<circle cx = "262.852" cy = "136.099" r = "3" />
<circle cx = "644.201" cy = "375.622" r = "3" />
<circle cx = "626.034" cy = "410.433" r = "3" />
<circle cx = "966.505" cy = "384.536" r = "3" />
<circle cx = "468.280" cy = "378.983" r = "3" />
<circle cx = "158.794" cy = "857.504" r = "3" />
<circle cx = "865.010" cy = "903.219" r = "3" />
<circle cx = "454.215" cy = "674.252" r = "3" />
<circle cx = "514.359" cy = "866.350" r = "3" />
<circle cx = "69.747" cy = "970.467" r = "3" />
<circle cx = "983.548" cy = "41.301" r = "3" />
<circle cx = "2.016" cy = "620.560" r = "3" />
<circle cx = "405.739" cy = "799.030" r = "3" />
<circle cx = "356.173" cy = "265.350" r = "3" />
<circle cx = "625.217" cy = "643.212" r = "3" />
<circle cx = "117.113" cy = "339.559" r = "3" />
<circle cx = "852.671" cy = "826.831" r = "3" />
<circle cx = "179.815" cy = "366.339" r = "3" />
<circle cx = "480.240" cy = "568.704" r = "3" />
<circle cx = "753.998" cy = "971.065" r = "3" />
<circle cx = "82.045" cy = "391.981" r = "3" />
<circle cx = "651.240" cy = "145.920" r = "3" />
<circle cx = "276.690" cy = "349.067" r = "3" />
<circle cx = "71.351" cy = "857.653" r = "3" />
<circle cx = "125.875" cy = "54.262" r = "3" />
<circle cx = "936.528" cy = "81.530" r = "3" />
<circle cx = "114.143" cy = "267.747" r = "3" />
<circle cx = "738.761" cy = "501.767" r = "3" />
<circle cx = "688.348" cy = "269.741" r = "3" />
<circle cx = "907.376" cy = "116.446" r = "3" />
<circle cx = "805.097" cy = "133.031" r = "3" />
<circle cx = "420.333" cy = "519.402" r = "3" />
<circle cx = "771.371" cy = "783.122" r = "3" />
<circle cx = "15.399" cy = "101.929" r = "3" />
<circle cx = "593.205" cy = "914.489" r = "3" />
<circle cx = "165.678" cy = "710.234" r = "3" />
<circle cx = "987.377" cy = "74.838" r = "3" />
<circle cx = "839.067" cy = "168.432" r = "3" />
<circle cx = "183.894" cy = "342.870" r = "3" />
<circle cx = "222.198" cy = "610.641" r = "3" />
<circle cx = "700.861" cy = "945.343" r = "3" />
<circle cx = "860.483" cy = "324.224" r = "3" />
<circle cx = "670.838" cy = "989.403" r = "3" />
<circle cx = "45.955" cy = "336.632" r = "3" />
<circle cx = "940.818" cy = "693.364" r = "3" />
<circle cx = "951.851" cy = "891.342" r = "3" />
<circle cx = "933.384" cy = "625.538" r = "3" />
<circle cx = "148.801" cy = "756.672" r = "3" />
<circle cx = "393.446" cy = "843.561" r = "3" />
<circle cx = "384.292" cy = "24.700" r = "3" />
<circle cx = "826.041" cy = "680.884" r = "3" />
<circle cx = "184.839" cy = "527.882" r = "3" />
<circle cx = "843.494" cy = "655.671" r = "3" />
<circle cx = "665.252" cy = "565.593" r = "3" />
<circle cx = "393.320" cy = "237.361" r = "3" />
<circle cx = "793.802" cy = "58.895" r = "3" />
<circle cx = "516.577" cy = "36.768" r = "3" />
<circle cx = "193.779" cy = "670.457" r = "3" />
<circle cx = "540.672" cy = "100.199" r = "3" />
<circle cx = "201.562" cy = "521.002" r = "3" />
<circle cx = "803.223" cy = "176.420" r = "3" />
<circle cx = "289.239" cy = "53.194" r = "3" />
<circle cx = "138.060" cy = "282.834" r = "3" />
<circle cx = "766.961" cy = "780.175" r = "3" />
<circle cx = "161.285" cy = "888.293" r = "3" />
<circle cx = "888.836" cy = "348.296" r = "3" />
<circle cx = "920.424" cy = "70.760" r = "3" />
<circle cx = "485.562" cy = "431.036" r = "3" />
<circle cx = "146.430" cy = "261.103" r = "3" />
<circle cx = "891.826" cy = "616.087" r = "3" />
<circle cx = "38.523" cy = "747.677" r = "3" />
<circle cx = "830.802" cy = "234.551" r = "3" />
<circle cx = "470.517" cy = "76.465" r = "3" />
<circle cx = "404.527" cy = "107.985" r = "3" />
<circle cx = "608.089" cy = "700.357" r = "3" />
<circle cx = "412.360" cy = "287.177" r = "3" />
<circle cx = "607.795" cy = "520.291" r = "3" />
<circle cx = "303.242" cy = "838.953" r = "3" />
<circle cx = "458.142" cy = "720.850" r = "3" />
<circle cx = "864.520" cy = "560.592" r = "3" />
<circle cx = "727.976" cy = "172.225" r = "3" />
<circle cx = "26.251" cy = "794.718" r = "3" />
<circle cx = "573.655" cy = "836.722" r = "3" />
<circle cx = "405.304" cy = "764.305" r = "3" />
<circle cx = "485.246" cy = "362.517" r = "3" />
<circle cx = "719.688" cy = "465.993" r = "3" />
<circle cx = "91.216" cy = "367.268" r = "3" />
<circle cx = "655.232" cy = "918.635" r = "3" />
<circle cx = "153.727" cy = "382.646" r = "3" />
<circle cx = "535.478" cy = "766.393" r = "3" />
<circle cx = "430.678" cy = "706.393" r = "3" />
<circle cx = "932.374" cy = "370.345" r = "3" />
<circle cx = "527.628" cy = "297.759" r = "3" />
<circle cx = "494.331" cy = "80.024" r = "3" />
<circle cx = "737.948" cy = "36.810" r = "3" />
<circle cx = "831.739" cy = "882.231" r = "3" />
<circle cx = "552.269" cy = "342.139" r = "3" />
<circle cx = "903.466" cy = "234.145" r = "3" />
<circle cx = "979.569" cy = "499.262" r = "3" />
<circle cx = "439.660" cy = "122.730" r = "3" />
<circle cx = "37.382" cy = "941.777" r = "3" />
<circle cx = "558.282" cy = "800.159" r = "3" />
<circle cx = "546.504" cy = "343.132" r = "3" />
<circle cx = "195.703" cy = "699.033" r = "3" />
<circle cx = "518.615" cy = "282.353" r = "3" />
<circle cx = "379.368" cy = "384.521" r = "3" />
</g>
</svg>
