<svg xmlns = "http://www.w3.org/2000/svg" width = "1000" height = "1000">
<g>
<polygon points = ""
fill = "none" stroke = "black"/>
</g>
<g>
<polygon points = "61.771, 778.241 8.253, 668.294 14.683, 640.263 32.730, 631.957 52.909, 630.636 75.298, 727.399 "
fill = "none" stroke = "black"/>
</g>
<g>
<polygon points = "970.496, 324.055 977.462, 343.049 996.571, 447.838 959.688, 497.887 903.916, 447.524 954.875, 315.332 962.833, 311.859 "
fill = "none" stroke = "black"/>
</g>
<g>
<polygon points = "991.426, 621.737 969.509, 638.394 950.111, 536.497 959.688, 497.887 996.571, 447.838 1000.000, 453.136 1000.000, 488.913 "
fill = "none" stroke = "black"/>
</g>
<g>
<polygon points = "999.023, 12.436 994.242, 5.465 993.300, 0.000 1000.000, 0.000 1000.000, 12.617 "
fill = "none" stroke = "black"/>
</g>
<g>
<polygon points = "367.801, 142.852 389.493, 206.026 379.684, 243.448 323.332, 317.855 247.486, 223.485 244.125, 173.675 244.608, 171.044 "
fill = "none" stroke = "black"/>
</g>
<g>
<polygon points = "993.005, 53.679 990.324, 41.255 993.054, 35.473 1000.000, 51.543 1000.000, 59.069 "
fill = "none" stroke = "black"/>
</g>
<g>
<polygon points = "246.835, 578.766 140.363, 759.915 133.268, 739.761 120.101, 631.238 196.319, 558.203 241.055, 567.697 "
fill = "none" stroke = "black"/>
</g>
<g>
<polygon points = "430.019, 32.047 439.278, 28.975 535.340, 13.803 574.153, 14.180 630.284, 27.333 618.025, 48.317 407.583, 59.175 419.850, 40.792 "
fill = "none" stroke = "black"/>
</g>
<g>
<polygon points = "646.664, 976.783 675.307, 971.851 705.584, 975.845 719.578, 981.748 698.409, 1000.000 615.602, 1000.000 "
fill = "none" stroke = "black"/>
</g>
<g>
<polygon points = "419.850, 40.792 407.583, 59.175 397.545, 65.985 358.279, 60.071 291.569, 28.503 312.434, 16.214 "
fill = "none" stroke = "black"/>
</g>
<g>
<polygon points = "918.350, 934.431 979.073, 930.850 914.210, 977.236 901.946, 970.802 898.886, 968.388 905.167, 937.205 "
fill = "none" stroke = "black"/>
</g>
<g>
<polygon points = "986.546, 928.958 982.529, 964.489 975.227, 970.389 921.074, 981.544 914.210, 977.236 979.073, 930.850 "
fill = "none" stroke = "black"/>
</g>
<g>
<polygon points = "696.020, 696.336 795.055, 803.308 752.416, 888.497 684.802, 851.834 677.823, 724.698 690.948, 695.458 "
fill = "none" stroke = "black"/>
</g>
<g>
<polygon points = "315.078, 9.914 227.824, 3.425 225.720, 0.000 356.286, 0.000 "
fill = "none" stroke = "black"/>
</g>
<g>
<polygon points = "10.830, 791.885 49.527, 803.804 38.150, 867.824 37.181, 868.733 0.000, 870.181 0.000, 831.207 "
fill = "none" stroke = "black"/>
</g>
<g>
<polygon points = "25.933, 970.827 27.080, 972.091 19.487, 991.668 16.027, 996.352 0.000, 993.928 0.000, 981.098 "
fill = "none" stroke = "black"/>
</g>
<g>
<polygon points = "5.866, 499.110 9.888, 617.965 0.000, 607.581 0.000, 502.947 "
fill = "none" stroke = "black"/>
</g>
<g>
<polygon points = "857.827, 991.602 878.585, 964.871 898.886, 968.388 901.946, 970.802 891.689, 993.578 "
fill = "none" stroke = "black"/>
</g>
<g>
<polygon points = "210.401, 935.386 260.581, 957.895 211.230, 978.074 154.664, 977.752 152.971, 944.088 168.877, 926.217 "
fill = "none" stroke = "black"/>
</g>
<g>
<polygon points = "993.054, 35.473 994.485, 26.231 1000.000, 25.884 1000.000, 51.543 "
fill = "none" stroke = "black"/>
</g>
<g>
<polygon points = "820.828, 520.301 826.374, 381.347 924.399, 305.296 954.875, 315.332 903.916, 447.524 "
fill = "none" stroke = "black"/>
</g>
<g>
<polygon points = "77.975, 450.399 50.140, 366.648 59.096, 329.330 178.200, 346.241 88.966, 455.551 "
fill = "none" stroke = "black"/>
</g>
<g>
<polygon points = "111.281, 862.900 118.374, 853.539 170.903, 918.436 168.877, 926.217 152.971, 944.088 109.494, 956.611 84.570, 929.503 "
fill = "none" stroke = "black"/>
</g>
<g>
<polygon points = "16.758, 201.923 26.666, 209.450 27.431, 267.517 14.120, 318.123 12.455, 317.181 "
fill = "none" stroke = "black"/>
</g>
<g>
<polygon points = ""
fill = "none" stroke = "black"/>
</g>
<g>
<polygon points = "8.223, 14.690 5.210, 90.694 0.000, 91.112 0.000, 13.016 "
fill = "none" stroke = "black"/>
</g>
<g>
<polygon points = "376.072, 937.308 566.528, 912.564 554.709, 964.579 548.438, 968.026 385.747, 964.111 "
fill = "none" stroke = "black"/>
</g>
<g>
<polygon points = "568.514, 377.098 573.675, 363.575 650.413, 326.921 726.328, 299.549 738.321, 320.981 742.899, 337.786 703.216, 482.072 591.612, 432.837 "
fill = "none" stroke = "black"/>
</g>
<g>
<polygon points = "905.912, 155.282 963.286, 305.207 962.833, 311.859 954.875, 315.332 924.399, 305.296 870.046, 232.747 843.253, 164.507 "
fill = "none" stroke = "black"/>
</g>
<g>
<polygon points = "111.093, 37.756 97.172, 61.609 85.799, 69.675 82.638, 66.924 59.270, 16.425 73.131, 7.631 "
fill = "none" stroke = "black"/>
</g>
<g>
<polygon points = "988.546, 135.523 991.634, 154.536 990.078, 167.757 975.346, 174.533 934.517, 126.279 931.520, 108.353 "
fill = "none" stroke = "black"/>
</g>
<g>
<polygon points = "135.887, 498.910 249.632, 401.425 305.500, 442.061 241.055, 567.697 196.319, 558.203 "
fill = "none" stroke = "black"/>
</g>
<g>
<polygon points = "73.131, 7.631 59.270, 16.425 23.592, 15.679 13.649, 10.177 14.684, 0.000 68.414, 0.000 "
fill = "none" stroke = "black"/>
</g>
<g>
<polygon points = "988.269, 86.021 986.848, 82.006 985.186, 69.126 993.005, 53.679 1000.000, 59.069 1000.000, 89.748 "
fill = "none" stroke = "black"/>
</g>
<g>
<polygon points = "15.379, 463.031 5.866, 499.110 0.000, 502.947 0.000, 457.541 "
fill = "none" stroke = "black"/>
</g>
<g>
<polygon points = "119.742, 491.313 88.966, 455.551 178.200, 346.241 196.493, 332.478 204.461, 333.316 249.632, 401.425 135.887, 498.910 "
fill = "none" stroke = "black"/>
</g>
<g>
<polygon points = "585.709, 892.433 548.186, 836.475 548.171, 836.343 561.288, 794.688 677.823, 724.698 684.802, 851.834 "
fill = "none" stroke = "black"/>
</g>
<g>
<polygon points = "987.206, 6.651 983.438, 0.000 993.300, 0.000 994.242, 5.465 "
fill = "none" stroke = "black"/>
</g>
<g>
<polygon points = "311.053, 778.130 312.734, 776.496 548.171, 836.343 548.186, 836.475 379.999, 902.599 "
fill = "none" stroke = "black"/>
</g>
<g>
<polygon points = "13.649, 10.177 8.223, 14.690 0.000, 13.016 0.000, 0.000 14.684, 0.000 "
fill = "none" stroke = "black"/>
</g>
<g>
<polygon points = ""
fill = "none" stroke = "black"/>
</g>
<g>
<polygon points = "87.531, 976.199 99.628, 973.155 123.472, 1000.000 67.416, 1000.000 "
fill = "none" stroke = "black"/>
</g>
<g>
<polygon points = "664.577, 629.000 498.978, 528.740 591.612, 432.837 703.216, 482.072 728.882, 516.427 "
fill = "none" stroke = "black"/>
</g>
<g>
<polygon points = "120.308, 831.409 142.256, 798.425 205.635, 796.944 236.604, 824.902 226.473, 867.354 170.903, 918.436 118.374, 853.539 "
fill = "none" stroke = "black"/>
</g>
<g>
<polygon points = "990.078, 167.757 991.634, 154.536 1000.000, 134.310 1000.000, 187.394 "
fill = "none" stroke = "black"/>
</g>
<g>
<polygon points = "995.671, 987.372 996.995, 984.893 1000.000, 984.803 1000.000, 999.926 "
fill = "none" stroke = "black"/>
</g>
<g>
<polygon points = "766.248, 982.257 787.423, 1000.000 698.409, 1000.000 719.578, 981.748 "
fill = "none" stroke = "black"/>
</g>
<g>
<polygon points = "978.834, 0.947 970.673, 2.994 964.276, 0.000 979.269, 0.000 "
fill = "none" stroke = "black"/>
</g>
<g>
<polygon points = "79.588, 614.004 120.101, 631.238 133.268, 739.761 75.298, 727.399 52.909, 630.636 "
fill = "none" stroke = "black"/>
</g>
<g>
<polygon points = "789.655, 32.015 845.481, 91.407 842.741, 99.223 719.654, 90.146 716.166, 8.243 "
fill = "none" stroke = "black"/>
</g>
<g>
<polygon points = "980.736, 1000.000 995.671, 987.372 1000.000, 999.926 1000.000, 1000.000 "
fill = "none" stroke = "black"/>
</g>
<g>
<polygon points = "980.440, 25.820 961.104, 12.387 970.673, 2.994 978.834, 0.947 982.615, 14.217 982.915, 16.359 "
fill = "none" stroke = "black"/>
</g>
<g>
<polygon points = "6.569, 414.283 22.049, 379.015 50.140, 366.648 77.975, 450.399 32.442, 463.661 28.728, 464.009 16.147, 461.357 "
fill = "none" stroke = "black"/>
</g>
<g>
<polygon points = "140.363, 759.915 246.835, 578.766 279.358, 613.604 205.635, 796.944 142.256, 798.425 "
fill = "none" stroke = "black"/>
</g>
<g>
<polygon points = "377.872, 990.272 385.747, 964.111 548.438, 968.026 516.585, 1000.000 381.543, 1000.000 "
fill = "none" stroke = "black"/>
</g>
<g>
<polygon points = "59.758, 319.234 79.459, 253.016 97.219, 246.964 153.785, 273.844 196.493, 332.478 178.200, 346.241 59.096, 329.330 "
fill = "none" stroke = "black"/>
</g>
<g>
<polygon points = "50.771, 989.137 51.424, 968.697 87.531, 976.199 67.416, 1000.000 59.897, 1000.000 "
fill = "none" stroke = "black"/>
</g>
<g>
<polygon points = "831.841, 17.397 879.921, 48.471 893.301, 78.711 845.481, 91.407 789.655, 32.015 "
fill = "none" stroke = "black"/>
</g>
<g>
<polygon points = "15.379, 463.031 16.147, 461.357 28.728, 464.009 32.730, 631.957 14.683, 640.263 9.888, 617.965 5.866, 499.110 "
fill = "none" stroke = "black"/>
</g>
<g>
<polygon points = ""
fill = "none" stroke = "black"/>
</g>
<g>
<polygon points = "900.459, 9.101 903.073, 13.920 879.921, 48.471 831.841, 17.397 834.304, 0.000 873.554, 0.000 "
fill = "none" stroke = "black"/>
</g>
<g>
<polygon points = "9.301, 943.036 25.933, 970.827 0.000, 981.098 0.000, 972.759 "
fill = "none" stroke = "black"/>
</g>
<g>
<polygon points = "9.888, 617.965 14.683, 640.263 8.253, 668.294 2.434, 690.679 0.000, 690.432 0.000, 607.581 "
fill = "none" stroke = "black"/>
</g>
<g>
<polygon points = "154.664, 977.752 211.230, 978.074 330.111, 1000.000 148.124, 1000.000 "
fill = "none" stroke = "black"/>
</g>
<g>
<polygon points = "83.826, 588.558 119.742, 491.313 135.887, 498.910 196.319, 558.203 120.101, 631.238 79.588, 614.004 "
fill = "none" stroke = "black"/>
</g>
<g>
<polygon points = "847.871, 954.308 839.535, 930.450 887.892, 883.389 895.342, 885.256 905.167, 937.205 898.886, 968.388 878.585, 964.871 "
fill = "none" stroke = "black"/>
</g>
<g>
<polygon points = "2.434, 690.679 8.253, 668.294 61.771, 778.241 58.755, 802.165 49.527, 803.804 10.830, 791.885 "
fill = "none" stroke = "black"/>
</g>
<g>
<polygon points = "50.295, 61.403 82.638, 66.924 85.799, 69.675 70.767, 94.202 33.401, 120.656 30.391, 119.273 "
fill = "none" stroke = "black"/>
</g>
<g>
<polygon points = "418.823, 719.820 510.026, 674.838 688.924, 693.148 690.948, 695.458 677.823, 724.698 561.288, 794.688 "
fill = "none" stroke = "black"/>
</g>
<g>
<polygon points = ""
fill = "none" stroke = "black"/>
</g>
<g>
<polygon points = "65.169, 209.505 70.767, 94.202 85.799, 69.675 97.172, 61.609 111.361, 102.894 97.219, 246.964 79.459, 253.016 "
fill = "none" stroke = "black"/>
</g>
<g>
<polygon points = "996.571, 447.838 977.462, 343.049 987.197, 340.768 1000.000, 358.303 1000.000, 453.136 "
fill = "none" stroke = "black"/>
</g>
<g>
<polygon points = "986.638, 874.501 978.307, 822.280 984.417, 793.458 1000.000, 804.175 1000.000, 854.664 "
fill = "none" stroke = "black"/>
</g>
<g>
<polygon points = "175.626, 174.747 111.361, 102.894 97.172, 61.609 111.093, 37.756 113.912, 37.140 235.216, 143.863 244.608, 171.044 244.125, 173.675 "
fill = "none" stroke = "black"/>
</g>
<g>
<polygon points = "428.427, 563.216 510.026, 674.838 418.823, 719.820 346.987, 723.642 293.335, 618.811 "
fill = "none" stroke = "black"/>
</g>
<g>
<polygon points = "830.960, 157.144 755.668, 168.424 710.563, 134.046 719.654, 90.146 842.741, 99.223 "
fill = "none" stroke = "black"/>
</g>
<g>
<polygon points = "5.210, 90.694 7.075, 92.910 16.742, 114.233 10.576, 141.820 0.000, 140.660 0.000, 91.112 "
fill = "none" stroke = "black"/>
</g>
<g>
<polygon points = "6.569, 414.283 16.147, 461.357 15.379, 463.031 0.000, 457.541 0.000, 408.565 "
fill = "none" stroke = "black"/>
</g>
<g>
<polygon points = "982.264, 735.296 987.667, 692.625 1000.000, 677.822 1000.000, 759.005 "
fill = "none" stroke = "black"/>
</g>
<g>
<polygon points = "398.071, 77.573 498.056, 140.349 543.227, 200.572 532.151, 232.360 389.493, 206.026 367.801, 142.852 "
fill = "none" stroke = "black"/>
</g>
<g>
<polygon points = "907.859, 4.179 953.819, 13.497 927.099, 34.412 903.073, 13.920 900.459, 9.101 "
fill = "none" stroke = "black"/>
</g>
<g>
<polygon points = "930.479, 741.892 941.203, 796.597 939.473, 867.965 895.342, 885.256 887.892, 883.389 877.730, 828.088 902.204, 757.387 "
fill = "none" stroke = "black"/>
</g>
<g>
<polygon points = "6.401, 932.223 7.209, 926.529 55.835, 954.730 51.319, 968.621 27.080, 972.091 25.933, 970.827 9.301, 943.036 "
fill = "none" stroke = "black"/>
</g>
<g>
<polygon points = "99.628, 973.155 87.531, 976.199 51.424, 968.697 51.319, 968.621 55.835, 954.730 65.347, 933.151 84.570, 929.503 109.494, 956.611 "
fill = "none" stroke = "black"/>
</g>
<g>
<polygon points = "713.274, 6.157 716.166, 8.243 719.654, 90.146 710.563, 134.046 692.101, 129.009 627.612, 64.553 618.025, 48.317 630.284, 27.333 "
fill = "none" stroke = "black"/>
</g>
<g>
<polygon points = "964.091, 999.887 925.424, 986.479 921.074, 981.544 975.227, 970.389 "
fill = "none" stroke = "black"/>
</g>
<g>
<polygon points = "293.335, 618.811 346.987, 723.642 312.734, 776.496 311.053, 778.130 236.604, 824.902 205.635, 796.944 279.358, 613.604 "
fill = "none" stroke = "black"/>
</g>
<g>
<polygon points = "175.626, 174.747 244.125, 173.675 247.486, 223.485 204.461, 333.316 196.493, 332.478 153.785, 273.844 "
fill = "none" stroke = "black"/>
</g>
<g>
<polygon points = "928.752, 83.755 970.073, 64.048 985.186, 69.126 986.848, 82.006 931.427, 107.975 925.024, 91.602 "
fill = "none" stroke = "black"/>
</g>
<g>
<polygon points = "554.709, 964.579 566.528, 912.564 583.078, 896.900 683.393, 942.435 675.307, 971.851 646.664, 976.783 "
fill = "none" stroke = "black"/>
</g>
<g>
<polygon points = "755.668, 168.424 830.960, 157.144 843.253, 164.507 870.046, 232.747 738.321, 320.981 726.328, 299.549 "
fill = "none" stroke = "black"/>
</g>
<g>
<polygon points = "972.176, 258.693 963.286, 305.207 905.912, 155.282 934.517, 126.279 975.346, 174.533 "
fill = "none" stroke = "black"/>
</g>
<g>
<polygon points = ""
fill = "none" stroke = "black"/>
</g>
<g>
<polygon points = "141.196, 17.440 113.912, 37.140 111.093, 37.756 73.131, 7.631 68.414, 0.000 86.401, 0.000 "
fill = "none" stroke = "black"/>
</g>
<g>
<polygon points = "870.046, 232.747 924.399, 305.296 826.374, 381.347 742.899, 337.786 738.321, 320.981 "
fill = "none" stroke = "black"/>
</g>
<g>
<polygon points = "814.676, 530.671 728.882, 516.427 703.216, 482.072 742.899, 337.786 826.374, 381.347 820.828, 520.301 "
fill = "none" stroke = "black"/>
</g>
<g>
<polygon points = "987.197, 340.768 1000.000, 309.975 1000.000, 358.303 "
fill = "none" stroke = "black"/>
</g>
<g>
<polygon points = "509.657, 377.369 334.128, 435.647 330.593, 434.440 323.332, 317.855 379.684, 243.448 "
fill = "none" stroke = "black"/>
</g>
<g>
<polygon points = "19.487, 991.668 27.080, 972.091 51.319, 968.621 51.424, 968.697 50.771, 989.137 "
fill = "none" stroke = "black"/>
</g>
<g>
<polygon points = "994.947, 969.922 996.995, 984.893 995.671, 987.372 980.736, 1000.000 975.974, 1000.000 "
fill = "none" stroke = "black"/>
</g>
<g>
<polygon points = "346.987, 723.642 418.823, 719.820 561.288, 794.688 548.171, 836.343 312.734, 776.496 "
fill = "none" stroke = "black"/>
</g>
<g>
<polygon points = "548.438, 968.026 554.709, 964.579 646.664, 976.783 615.602, 1000.000 516.585, 1000.000 "
fill = "none" stroke = "black"/>
</g>
<g>
<polygon points = ""
fill = "none" stroke = "black"/>
</g>
<g>
<polygon points = "992.620, 13.167 987.398, 7.064 987.206, 6.651 994.242, 5.465 999.023, 12.436 "
fill = "none" stroke = "black"/>
</g>
<g>
<polygon points = "2.434, 690.679 10.830, 791.885 0.000, 831.207 0.000, 690.432 "
fill = "none" stroke = "black"/>
</g>
<g>
<polygon points = "260.581, 957.895 210.401, 935.386 370.222, 933.386 376.072, 937.308 385.747, 964.111 377.872, 990.272 "
fill = "none" stroke = "black"/>
</g>
<g>
<polygon points = "141.196, 17.440 155.165, 13.033 177.524, 15.646 191.025, 19.794 251.984, 100.698 235.216, 143.863 113.912, 37.140 "
fill = "none" stroke = "black"/>
</g>
<g>
<polygon points = "764.910, 686.572 902.204, 757.387 877.730, 828.088 795.055, 803.308 696.020, 696.336 "
fill = "none" stroke = "black"/>
</g>
<g>
<polygon points = "8.424, 194.135 10.576, 141.820 16.742, 114.233 30.391, 119.273 33.401, 120.656 29.305, 203.273 26.666, 209.450 16.758, 201.923 "
fill = "none" stroke = "black"/>
</g>
<g>
<polygon points = "995.002, 969.201 982.529, 964.489 986.546, 928.958 995.139, 912.975 1000.000, 916.186 1000.000, 961.517 "
fill = "none" stroke = "black"/>
</g>
<g>
<polygon points = "29.305, 203.273 65.169, 209.505 79.459, 253.016 59.758, 319.234 27.431, 267.517 26.666, 209.450 "
fill = "none" stroke = "black"/>
</g>
<g>
<polygon points = "458.100, 527.160 498.978, 528.740 664.577, 629.000 688.924, 693.148 510.026, 674.838 428.427, 563.216 "
fill = "none" stroke = "black"/>
</g>
<g>
<polygon points = "925.424, 986.479 964.091, 999.887 964.220, 1000.000 918.879, 1000.000 "
fill = "none" stroke = "black"/>
</g>
<g>
<polygon points = "12.455, 317.181 14.120, 318.123 22.049, 379.015 6.569, 414.283 0.000, 408.565 0.000, 312.559 "
fill = "none" stroke = "black"/>
</g>
<g>
<polygon points = "831.841, 17.397 789.655, 32.015 716.166, 8.243 713.274, 6.157 715.820, 0.000 834.304, 0.000 "
fill = "none" stroke = "black"/>
</g>
<g>
<polygon points = "111.361, 102.894 175.626, 174.747 153.785, 273.844 97.219, 246.964 "
fill = "none" stroke = "black"/>
</g>
<g>
<polygon points = "16.027, 996.352 14.785, 1000.000 0.000, 1000.000 0.000, 993.928 "
fill = "none" stroke = "black"/>
</g>
<g>
<polygon points = ""
fill = "none" stroke = "black"/>
</g>
<g>
<polygon points = "987.398, 7.064 992.620, 13.167 994.290, 25.856 982.915, 16.359 982.615, 14.217 "
fill = "none" stroke = "black"/>
</g>
<g>
<polygon points = "13.649, 10.177 23.592, 15.679 31.513, 54.169 7.075, 92.910 5.210, 90.694 8.223, 14.690 "
fill = "none" stroke = "black"/>
</g>
<g>
<polygon points = "941.324, 698.647 847.866, 591.011 950.111, 536.497 969.509, 638.394 "
fill = "none" stroke = "black"/>
</g>
<g>
<polygon points = "830.960, 157.144 842.741, 99.223 845.481, 91.407 893.301, 78.711 925.024, 91.602 931.427, 107.975 931.520, 108.353 934.517, 126.279 905.912, 155.282 843.253, 164.507 "
fill = "none" stroke = "black"/>
</g>
<g>
<polygon points = "980.944, 28.929 980.440, 25.820 982.915, 16.359 994.290, 25.856 994.485, 26.231 993.054, 35.473 990.324, 41.255 "
fill = "none" stroke = "black"/>
</g>
<g>
<polygon points = "965.541, 43.709 931.067, 42.220 927.099, 34.412 953.819, 13.497 961.104, 12.387 980.440, 25.820 980.944, 28.929 "
fill = "none" stroke = "black"/>
</g>
<g>
<polygon points = "330.593, 434.440 334.128, 435.647 458.100, 527.160 428.427, 563.216 293.335, 618.811 279.358, 613.604 246.835, 578.766 241.055, 567.697 305.500, 442.061 "
fill = "none" stroke = "black"/>
</g>
<g>
<polygon points = "956.142, 877.883 984.615, 893.109 995.139, 912.975 986.546, 928.958 979.073, 930.850 918.350, 934.431 "
fill = "none" stroke = "black"/>
</g>
<g>
<polygon points = ""
fill = "none" stroke = "black"/>
</g>
<g>
<polygon points = "837.893, 964.246 835.739, 996.473 832.335, 1000.000 787.423, 1000.000 766.248, 982.257 "
fill = "none" stroke = "black"/>
</g>
<g>
<polygon points = "37.181, 868.733 59.411, 928.321 8.570, 909.844 0.000, 880.739 0.000, 870.181 "
fill = "none" stroke = "black"/>
</g>
<g>
<polygon points = "994.485, 26.231 994.290, 25.856 992.620, 13.167 999.023, 12.436 1000.000, 12.617 1000.000, 25.884 "
fill = "none" stroke = "black"/>
</g>
<g>
<polygon points = "985.186, 69.126 970.073, 64.048 965.541, 43.709 980.944, 28.929 990.324, 41.255 993.005, 53.679 "
fill = "none" stroke = "black"/>
</g>
<g>
<polygon points = "29.305, 203.273 33.401, 120.656 70.767, 94.202 65.169, 209.505 "
fill = "none" stroke = "black"/>
</g>
<g>
<polygon points = "133.268, 739.761 140.363, 759.915 142.256, 798.425 120.308, 831.409 58.755, 802.165 61.771, 778.241 75.298, 727.399 "
fill = "none" stroke = "black"/>
</g>
<g>
<polygon points = "891.689, 993.578 901.946, 970.802 914.210, 977.236 921.074, 981.544 925.424, 986.479 918.879, 1000.000 901.114, 1000.000 "
fill = "none" stroke = "black"/>
</g>
<g>
<polygon points = "972.176, 258.693 975.346, 174.533 990.078, 167.757 1000.000, 187.394 1000.000, 225.921 "
fill = "none" stroke = "black"/>
</g>
<g>
<polygon points = "835.739, 996.473 857.827, 991.602 891.689, 993.578 901.114, 1000.000 832.335, 1000.000 "
fill = "none" stroke = "black"/>
</g>
<g>
<polygon points = "10.576, 141.820 8.424, 194.135 0.000, 206.580 0.000, 140.660 "
fill = "none" stroke = "black"/>
</g>
<g>
<polygon points = "995.139, 912.975 984.615, 893.109 986.638, 874.501 1000.000, 854.664 1000.000, 916.186 "
fill = "none" stroke = "black"/>
</g>
<g>
<polygon points = "996.995, 984.893 994.947, 969.922 995.002, 969.201 1000.000, 961.517 1000.000, 984.803 "
fill = "none" stroke = "black"/>
</g>
<g>
<polygon points = "984.417, 793.458 975.254, 766.121 982.264, 735.296 1000.000, 759.005 1000.000, 804.175 "
fill = "none" stroke = "black"/>
</g>
<g>
<polygon points = "8.570, 909.844 59.411, 928.321 65.347, 933.151 55.835, 954.730 7.209, 926.529 "
fill = "none" stroke = "black"/>
</g>
<g>
<polygon points = "211.230, 978.074 260.581, 957.895 377.872, 990.272 381.543, 1000.000 330.111, 1000.000 "
fill = "none" stroke = "black"/>
</g>
<g>
<polygon points = "227.824, 3.425 177.524, 15.646 155.165, 13.033 151.258, 0.000 225.720, 0.000 "
fill = "none" stroke = "black"/>
</g>
<g>
<polygon points = "984.615, 893.109 956.142, 877.883 939.473, 867.965 941.203, 796.597 978.307, 822.280 986.638, 874.501 "
fill = "none" stroke = "black"/>
</g>
<g>
<polygon points = "28.728, 464.009 32.442, 463.661 83.826, 588.558 79.588, 614.004 52.909, 630.636 32.730, 631.957 "
fill = "none" stroke = "black"/>
</g>
<g>
<polygon points = "939.992, 723.067 975.254, 766.121 984.417, 793.458 978.307, 822.280 941.203, 796.597 930.479, 741.892 "
fill = "none" stroke = "black"/>
</g>
<g>
<polygon points = "842.547, 588.104 847.866, 591.011 941.324, 698.647 941.740, 715.224 939.992, 723.067 930.479, 741.892 902.204, 757.387 764.910, 686.572 "
fill = "none" stroke = "black"/>
</g>
<g>
<polygon points = "251.984, 100.698 191.025, 19.794 291.569, 28.503 358.279, 60.071 "
fill = "none" stroke = "black"/>
</g>
<g>
<polygon points = "970.673, 2.994 961.104, 12.387 953.819, 13.497 907.859, 4.179 909.511, 0.000 964.276, 0.000 "
fill = "none" stroke = "black"/>
</g>
<g>
<polygon points = "574.153, 14.180 535.340, 13.803 508.499, 0.000 611.483, 0.000 "
fill = "none" stroke = "black"/>
</g>
<g>
<polygon points = "120.308, 831.409 118.374, 853.539 111.281, 862.900 38.150, 867.824 49.527, 803.804 58.755, 802.165 "
fill = "none" stroke = "black"/>
</g>
<g>
<polygon points = "713.274, 6.157 630.284, 27.333 574.153, 14.180 611.483, 0.000 715.820, 0.000 "
fill = "none" stroke = "black"/>
</g>
<g>
<polygon points = "32.442, 463.661 77.975, 450.399 88.966, 455.551 119.742, 491.313 83.826, 588.558 "
fill = "none" stroke = "black"/>
</g>
<g>
<polygon points = "931.067, 42.220 965.541, 43.709 970.073, 64.048 928.752, 83.755 "
fill = "none" stroke = "black"/>
</g>
<g>
<polygon points = "155.165, 13.033 141.196, 17.440 86.401, 0.000 151.258, 0.000 "
fill = "none" stroke = "black"/>
</g>
<g>
<polygon points = "31.513, 54.169 50.295, 61.403 30.391, 119.273 16.742, 114.233 7.075, 92.910 "
fill = "none" stroke = "black"/>
</g>
<g>
<polygon points = "956.142, 877.883 918.350, 934.431 905.167, 937.205 895.342, 885.256 939.473, 867.965 "
fill = "none" stroke = "black"/>
</g>
<g>
<polygon points = "16.027, 996.352 19.487, 991.668 50.771, 989.137 59.897, 1000.000 14.785, 1000.000 "
fill = "none" stroke = "black"/>
</g>
<g>
<polygon points = "970.496, 324.055 962.833, 311.859 963.286, 305.207 972.176, 258.693 1000.000, 225.921 1000.000, 265.796 "
fill = "none" stroke = "black"/>
</g>
<g>
<polygon points = "987.206, 6.651 987.398, 7.064 982.615, 14.217 978.834, 0.947 979.269, 0.000 983.438, 0.000 "
fill = "none" stroke = "black"/>
</g>
<g>
<polygon points = "334.128, 435.647 509.657, 377.369 568.514, 377.098 591.612, 432.837 498.978, 528.740 458.100, 527.160 "
fill = "none" stroke = "black"/>
</g>
<g>
<polygon points = "31.513, 54.169 23.592, 15.679 59.270, 16.425 82.638, 66.924 50.295, 61.403 "
fill = "none" stroke = "black"/>
</g>
<g>
<polygon points = "987.667, 692.625 982.264, 735.296 975.254, 766.121 939.992, 723.067 941.740, 715.224 "
fill = "none" stroke = "black"/>
</g>
<g>
<polygon points = "8.570, 909.844 7.209, 926.529 6.401, 932.223 0.000, 930.552 0.000, 880.739 "
fill = "none" stroke = "black"/>
</g>
<g>
<polygon points = "988.546, 135.523 931.520, 108.353 931.427, 107.975 986.848, 82.006 988.269, 86.021 "
fill = "none" stroke = "black"/>
</g>
<g>
<polygon points = "439.278, 28.975 430.019, 32.047 381.971, 0.000 443.608, 0.000 "
fill = "none" stroke = "black"/>
</g>
<g>
<polygon points = "227.824, 3.425 315.078, 9.914 312.434, 16.214 291.569, 28.503 191.025, 19.794 177.524, 15.646 "
fill = "none" stroke = "black"/>
</g>
<g>
<polygon points = "877.730, 828.088 887.892, 883.389 839.535, 930.450 823.304, 926.351 756.541, 893.034 752.416, 888.497 795.055, 803.308 "
fill = "none" stroke = "black"/>
</g>
<g>
<polygon points = "235.216, 143.863 251.984, 100.698 358.279, 60.071 397.545, 65.985 398.071, 77.573 367.801, 142.852 244.608, 171.044 "
fill = "none" stroke = "black"/>
</g>
<g>
<polygon points = "842.547, 588.104 764.910, 686.572 696.020, 696.336 690.948, 695.458 688.924, 693.148 664.577, 629.000 728.882, 516.427 814.676, 530.671 "
fill = "none" stroke = "black"/>
</g>
<g>
<polygon points = "99.628, 973.155 109.494, 956.611 152.971, 944.088 154.664, 977.752 148.124, 1000.000 123.472, 1000.000 "
fill = "none" stroke = "black"/>
</g>
<g>
<polygon points = "370.222, 933.386 366.302, 928.620 379.999, 902.599 548.186, 836.475 585.709, 892.433 583.078, 896.900 566.528, 912.564 376.072, 937.308 "
fill = "none" stroke = "black"/>
</g>
<g>
<polygon points = "987.667, 692.625 941.740, 715.224 941.324, 698.647 969.509, 638.394 991.426, 621.737 1000.000, 637.821 1000.000, 677.822 "
fill = "none" stroke = "black"/>
</g>
<g>
<polygon points = "903.073, 13.920 927.099, 34.412 931.067, 42.220 928.752, 83.755 925.024, 91.602 893.301, 78.711 879.921, 48.471 "
fill = "none" stroke = "black"/>
</g>
<g>
<polygon points = "6.401, 932.223 9.301, 943.036 0.000, 972.759 0.000, 930.552 "
fill = "none" stroke = "black"/>
</g>
<g>
<polygon points = "823.304, 926.351 839.535, 930.450 847.871, 954.308 837.893, 964.246 766.248, 982.257 719.578, 981.748 705.584, 975.845 "
fill = "none" stroke = "black"/>
</g>
<g>
<polygon points = "226.473, 867.354 366.302, 928.620 370.222, 933.386 210.401, 935.386 168.877, 926.217 170.903, 918.436 "
fill = "none" stroke = "black"/>
</g>
<g>
<polygon points = "532.151, 232.360 573.675, 363.575 568.514, 377.098 509.657, 377.369 379.684, 243.448 389.493, 206.026 "
fill = "none" stroke = "black"/>
</g>
<g>
<polygon points = "950.111, 536.497 847.866, 591.011 842.547, 588.104 814.676, 530.671 820.828, 520.301 903.916, 447.524 959.688, 497.887 "
fill = "none" stroke = "black"/>
</g>
<g>
<polygon points = "8.424, 194.135 16.758, 201.923 12.455, 317.181 0.000, 312.559 0.000, 206.580 "
fill = "none" stroke = "black"/>
</g>
<g>
<polygon points = "835.739, 996.473 837.893, 964.246 847.871, 954.308 878.585, 964.871 857.827, 991.602 "
fill = "none" stroke = "black"/>
</g>
<g>
<polygon points = "59.758, 319.234 59.096, 329.330 50.140, 366.648 22.049, 379.015 14.120, 318.123 27.431, 267.517 "
fill = "none" stroke = "black"/>
</g>
<g>
<polygon points = "683.393, 942.435 583.078, 896.900 585.709, 892.433 684.802, 851.834 752.416, 888.497 756.541, 893.034 "
fill = "none" stroke = "black"/>
</g>
<g>
<polygon points = "311.053, 778.130 379.999, 902.599 366.302, 928.620 226.473, 867.354 236.604, 824.902 "
fill = "none" stroke = "black"/>
</g>
<g>
<polygon points = "987.197, 340.768 977.462, 343.049 970.496, 324.055 1000.000, 265.796 1000.000, 309.975 "
fill = "none" stroke = "black"/>
</g>
<g>
<polygon points = "622.937, 167.411 543.227, 200.572 498.056, 140.349 627.612, 64.553 692.101, 129.009 "
fill = "none" stroke = "black"/>
</g>
<g>
<polygon points = "535.340, 13.803 439.278, 28.975 443.608, 0.000 508.499, 0.000 "
fill = "none" stroke = "black"/>
</g>
<g>
<polygon points = "907.859, 4.179 900.459, 9.101 873.554, 0.000 909.511, 0.000 "
fill = "none" stroke = "black"/>
</g>
<g>
<polygon points = "995.002, 969.201 994.947, 969.922 975.974, 1000.000 964.220, 1000.000 964.091, 999.887 975.227, 970.389 982.529, 964.489 "
fill = "none" stroke = "black"/>
</g>
<g>
<polygon points = "622.937, 167.411 692.101, 129.009 710.563, 134.046 755.668, 168.424 726.328, 299.549 650.413, 326.921 "
fill = "none" stroke = "black"/>
</g>
<g>
<polygon points = "991.634, 154.536 988.546, 135.523 988.269, 86.021 1000.000, 89.748 1000.000, 134.310 "
fill = "none" stroke = "black"/>
</g>
<g>
<polygon points = "991.426, 621.737 1000.000, 488.913 1000.000, 637.821 "
fill = "none" stroke = "black"/>
</g>
<g>
<polygon points = "430.019, 32.047 419.850, 40.792 312.434, 16.214 315.078, 9.914 356.286, 0.000 381.971, 0.000 "
fill = "none" stroke = "black"/>
</g>
<g>
<polygon points = ""
fill = "none" stroke = "black"/>
</g>
<g>
<polygon points = "683.393, 942.435 756.541, 893.034 823.304, 926.351 705.584, 975.845 675.307, 971.851 "
fill = "none" stroke = "black"/>
</g>
<g>
<polygon points = "532.151, 232.360 543.227, 200.572 622.937, 167.411 650.413, 326.921 573.675, 363.575 "
fill = "none" stroke = "black"/>
</g>
<g>
<polygon points = "111.281, 862.900 84.570, 929.503 65.347, 933.151 59.411, 928.321 37.181, 868.733 38.150, 867.824 "
fill = "none" stroke = "black"/>
</g>
<g>
<polygon points = "498.056, 140.349 398.071, 77.573 397.545, 65.985 407.583, 59.175 618.025, 48.317 627.612, 64.553 "
fill = "none" stroke = "black"/>
</g>
<g>
<polygon points = "330.593, 434.440 305.500, 442.061 249.632, 401.425 204.461, 333.316 247.486, 223.485 323.332, 317.855 "
fill = "none" stroke = "black"/>
</g>
<g>
<circle cx = "85.032" cy = "108.389" r = "3" />
<circle cx = "189.690" cy = "601.992" r = "3" />
<circle cx = "743.512" cy = "439.610" r = "3" />
<circle cx = "809.567" cy = "488.287" r = "3" />
<circle cx = "995.085" cy = "33.389" r = "3" />
<circle cx = "426.051" cy = "347.001" r = "3" />
<circle cx = "961.533" cy = "142.013" r = "3" />
<circle cx = "294.026" cy = "585.355" r = "3" />
<circle cx = "514.893" cy = "210.215" r = "3" />
<circle cx = "544.273" cy = "906.370" r = "3" />
<circle cx = "432.260" cy = "155.073" r = "3" />
<circle cx = "772.846" cy = "808.141" r = "3" />
<circle cx = "780.367" cy = "818.657" r = "3" />
<circle cx = "579.141" cy = "685.869" r = "3" />
<circle cx = "411.985" cy = "7.695" r = "3" />
<circle cx = "163.922" cy = "665.152" r = "3" />
<circle cx = "76.218" cy = "825.476" r = "3" />
<circle cx = "37.300" cy = "532.585" r = "3" />
<circle cx = "674.113" cy = "933.297" r = "3" />
<circle cx = "389.782" cy = "834.601" r = "3" />
<circle cx = "990.804" cy = "129.361" r = "3" />
<circle cx = "672.653" cy = "412.294" r = "3" />
<circle cx = "255.014" cy = "406.955" r = "3" />
<circle cx = "271.720" cy = "729.519" r = "3" />
<circle cx = "95.930" cy = "367.444" r = "3" />
<circle cx = "151.273" cy = "51.138" r = "3" />
<circle cx = "42.604" cy = "264.911" r = "3" />
<circle cx = "465.497" cy = "777.460" r = "3" />
<circle cx = "571.484" cy = "395.431" r = "3" />
<circle cx = "698.002" cy = "335.314" r = "3" />
<circle cx = "173.652" cy = "248.505" r = "3" />
<circle cx = "824.917" cy = "246.904" r = "3" />
<circle cx = "319.049" cy = "467.449" r = "3" />
<circle cx = "147.554" cy = "207.372" r = "3" />
<circle cx = "912.531" cy = "205.619" r = "3" />
<circle cx = "9.408" cy = "489.947" r = "3" />
<circle cx = "295.594" cy = "440.081" r = "3" />
<circle cx = "504.173" cy = "689.984" r = "3" />
<circle cx = "982.579" cy = "35.545" r = "3" />
<circle cx = "448.564" cy = "696.486" r = "3" />
<circle cx = "56.208" cy = "198.081" r = "3" />
<circle cx = "983.813" cy = "948.937" r = "3" />
<circle cx = "239.803" cy = "895.301" r = "3" />
<circle cx = "534.797" cy = "478.593" r = "3" />
<circle cx = "329.979" cy = "682.362" r = "3" />
<circle cx = "977.858" cy = "264.913" r = "3" />
<circle cx = "953.617" cy = "950.532" r = "3" />
<circle cx = "572.538" cy = "939.155" r = "3" />
<circle cx = "811.628" cy = "20.814" r = "3" />
<circle cx = "225.825" cy = "593.631" r = "3" />
<circle cx = "619.046" cy = "245.444" r = "3" />
<circle cx = "915.988" cy = "963.508" r = "3" />
<circle cx = "830.576" cy = "96.357" r = "3" />
<circle cx = "175.992" cy = "433.217" r = "3" />
<circle cx = "328.182" cy = "605.431" r = "3" />
<circle cx = "464.552" cy = "816.732" r = "3" />
<circle cx = "257.500" cy = "389.451" r = "3" />
<circle cx = "196.504" cy = "858.707" r = "3" />
<circle cx = "669.344" cy = "198.167" r = "3" />
<circle cx = "155.896" cy = "528.572" r = "3" />
<circle cx = "255.728" cy = "6.022" r = "3" />
<circle cx = "698.761" cy = "152.649" r = "3" />
<circle cx = "69.381" cy = "808.214" r = "3" />
<circle cx = "8.147" cy = "560.347" r = "3" />
<circle cx = "389.613" cy = "864.343" r = "3" />
<circle cx = "249.231" cy = "538.608" r = "3" />
<circle cx = "698.389" cy = "793.143" r = "3" />
<circle cx = "182.262" cy = "605.607" r = "3" />
<circle cx = "142.462" cy = "284.348" r = "3" />
<circle cx = "473.120" cy = "638.280" r = "3" />
<circle cx = "0.310" cy = "27.891" r = "3" />
<circle cx = "242.597" cy = "345.720" r = "3" />
<circle cx = "940.200" cy = "403.743" r = "3" />
<circle cx = "903.858" cy = "668.468" r = "3" />
<circle cx = "304.043" cy = "324.602" r = "3" />
<circle cx = "449.785" cy = "590.968" r = "3" />
<circle cx = "618.305" cy = "255.495" r = "3" />
<circle cx = "47.345" cy = "323.963" r = "3" />
<circle cx = "18.198" cy = "465.325" r = "3" />
<circle cx = "938.174" cy = "621.956" r = "3" />
<circle cx = "492.311" cy = "324.249" r = "3" />
<circle cx = "784.188" cy = "106.318" r = "3" />
<circle cx = "727.119" cy = "678.486" r = "3" />
<circle cx = "145.237" cy = "762.817" r = "3" />
<circle cx = "211.923" cy = "784.497" r = "3" />
<circle cx = "578.177" cy = "247.184" r = "3" />
<circle cx = "790.235" cy = "866.562" r = "3" />
<circle cx = "380.455" cy = "626.450" r = "3" />
<circle cx = "304.522" cy = "355.201" r = "3" />
<circle cx = "822.678" cy = "217.212" r = "3" />
<circle cx = "524.381" cy = "790.840" r = "3" />
<circle cx = "634.027" cy = "360.433" r = "3" />
<circle cx = "738.946" cy = "319.646" r = "3" />
<circle cx = "399.406" cy = "992.914" r = "3" />
<circle cx = "262.852" cy = "136.099" r = "3" />
<circle cx = "644.201" cy = "375.622" r = "3" />
<circle cx = "626.034" cy = "410.433" r = "3" />
<circle cx = "966.505" cy = "384.536" r = "3" />
<circle cx = "468.280" cy = "378.983" r = "3" />
<circle cx = "158.794" cy = "857.504" r = "3" />
<circle cx = "865.010" cy = "903.219" r = "3" />
<circle cx = "454.215" cy = "674.252" r = "3" />
<circle cx = "514.359" cy = "866.350" r = "3" />
<circle cx = "69.747" cy = "970.467" r = "3" />
<circle cx = "983.548" cy = "41.301" r = "3" />
<circle cx = "2.016" cy = "620.560" r = "3" />
<circle cx = "405.739" cy = "799.030" r = "3" />
<circle cx = "356.173" cy = "265.350" r = "3" />
<circle cx = "625.217" cy = "643.212" r = "3" />
<circle cx = "117.113" cy = "339.559" r = "3" />
<circle cx = "852.671" cy = "826.831" r = "3" />
<circle cx = "179.815" cy = "366.339" r = "3" />
<circle cx = "480.240" cy = "568.704" r = "3" />
<circle cx = "753.998" cy = "971.065" r = "3" />
<circle cx = "82.045" cy = "391.981" r = "3" />
<circle cx = "651.240" cy = "145.920" r = "3" />
<circle cx = "276.690" cy = "349.067" r = "3" />
<circle cx = "71.351" cy = "857.653" r = "3" />
<circle cx = "125.875" cy = "54.262" r = "3" />
<circle cx = "936.528" cy = "81.530" r = "3" />
<circle cx = "114.143" cy = "267.747" r = "3" />
<circle cx = "738.761" cy = "501.767" r = "3" />
<circle cx = "688.348" cy = "269.741" r = "3" />
<circle cx = "907.376" cy = "116.446" r = "3" />
<circle cx = "805.097" cy = "133.031" r = "3" />
<circle cx = "420.333" cy = "519.402" r = "3" />
<circle cx = "771.371" cy = "783.122" r = "3" />
<circle cx = "15.399" cy = "101.929" r = "3" />
<circle cx = "593.205" cy = "914.489" r = "3" />
<circle cx = "165.678" cy = "710.234" r = "3" />
<circle cx = "987.377" cy = "74.838" r = "3" />
<circle cx = "839.067" cy = "168.432" r = "3" />
<circle cx = "183.894" cy = "342.870" r = "3" />
<circle cx = "222.198" cy = "610.641" r = "3" />
<circle cx = "700.861" cy = "945.343" r = "3" />
<circle cx = "860.483" cy = "324.224" r = "3" />
<circle cx = "670.838" cy = "989.403" r = "3" />
<circle cx = "45.955" cy = "336.632" r = "3" />
<circle cx = "940.818" cy = "693.364" r = "3" />
<circle cx = "951.851" cy = "891.342" r = "3" />
<circle cx = "933.384" cy = "625.538" r = "3" />
<circle cx = "148.801" cy = "756.672" r = "3" />
<circle cx = "393.446" cy = "843.561" r = "3" />
<circle cx = "384.292" cy = "24.700" r = "3" />
<circle cx = "826.041" cy = "680.884" r = "3" />
<circle cx = "184.839" cy = "527.882" r = "3" />
<circle cx = "843.494" cy = "655.671" r = "3" />
<circle cx = "665.252" cy = "565.593" r = "3" />
<circle cx = "393.320" cy = "237.361" r = "3" />
<circle cx = "793.802" cy = "58.895" r = "3" />
<circle cx = "516.577" cy = "36.768" r = "3" />
<circle cx = "193.779" cy = "670.457" r = "3" />
<circle cx = "540.672" cy = "100.199" r = "3" />
<circle cx = "201.562" cy = "521.002" r = "3" />
<circle cx = "803.223" cy = "176.420" r = "3" />
<circle cx = "289.239" cy = "53.194" r = "3" />
<circle cx = "138.060" cy = "282.834" r = "3" />
<circle cx = "766.961" cy = "780.175" r = "3" />
<circle cx = "161.285" cy = "888.293" r = "3" />
<circle cx = "888.836" cy = "348.296" r = "3" />
<circle cx = "920.424" cy = "70.760" r = "3" />
<circle cx = "485.562" cy = "431.036" r = "3" />
<circle cx = "146.430" cy = "261.103" r = "3" />
<circle cx = "891.826" cy = "616.087" r = "3" />
<circle cx = "38.523" cy = "747.677" r = "3" />
<circle cx = "830.802" cy = "234.551" r = "3" />
<circle cx = "470.517" cy = "76.465" r = "3" />
<circle cx = "404.527" cy = "107.985" r = "3" />
<circle cx = "608.089" cy = "700.357" r = "3" />
<circle cx = "412.360" cy = "287.177" r = "3" />
<circle cx = "607.795" cy = "520.291" r = "3" />
<circle cx = "303.242" cy = "838.953" r = "3" />
<circle cx = "458.142" cy = "720.850" r = "3" />
<circle cx = "864.520" cy = "560.592" r = "3" />
<circle cx = "727.976" cy = "172.225" r = "3" />
<circle cx = "26.251" cy = "794.718" r = "3" />
<circle cx = "573.655" cy = "836.722" r = "3" />
<circle cx = "405.304" cy = "764.305" r = "3" />
<circle cx = "485.246" cy = "362.517" r = "3" />
<circle cx = "719.688" cy = "465.993" r = "3" />
<circle cx = "91.216" cy = "367.268" r = "3" />
<circle cx = "655.232" cy = "918.635" r = "3" />
<circle cx = "153.727" cy = "382.646" r = "3" />
<circle cx = "535.478" cy = "766.393" r = "3" />
<circle cx = "430.678" cy = "706.393" r = "3" />
<circle cx = "932.374" cy = "370.345" r = "3" />
<circle cx = "527.628" cy = "297.759" r = "3" />
<circle cx = "494.331" cy = "80.024" r = "3" />
<circle cx = "737.948" cy = "36.810" r = "3" />
<circle cx = "831.739" cy = "882.231" r = "3" />
<circle cx = "552.269" cy = "342.139" r = "3" />
<circle cx = "903.466" cy = "234.145" r = "3" />
<circle cx = "979.569" cy = "499.262" r = "3" />
<circle cx = "439.660" cy = "122.730" r = "3" />
<circle cx = "37.382" cy = "941.777" r = "3" />
<circle cx = "558.282" cy = "800.159" r = "3" />
<circle cx = "546.504" cy = "343.132" r = "3" />
<circle cx = "195.703" cy = "699.033" r = "3" />
<circle cx = "518.615" cy = "282.353" r = "3" />
<circle cx = "379.368" cy = "384.521" r = "3" />
</g>
</svg>
