<svg xmlns = "http://www.w3.org/2000/svg" width = "1000" height = "1000">
<g>
<polygon points = "75.396, 49.730 87.184, 37.324 168.331, 98.555 119.155, 129.616 69.467, 113.648 "
fill = "none" stroke = "black"/>
</g>
<g>
<polygon points = "188.872, 668.966 146.146, 581.187 155.298, 576.974 217.616, 572.895 229.333, 623.538 217.705, 667.244 "
fill = "none" stroke = "black"/>
</g>
<g>
<polygon points = "792.141, 529.628 740.743, 483.216 755.339, 445.354 761.134, 442.825 797.377, 441.445 820.940, 465.332 830.525, 480.586 794.264, 529.791 "
fill = "none" stroke = "black"/>
</g>
<g>
<polygon points = "858.811, 496.603 880.462, 530.057 805.204, 587.255 794.264, 529.791 830.525, 480.586 "
fill = "none" stroke = "black"/>
</g>
<g>
<polygon points = "988.583, 111.997 943.899, 46.847 935.822, 0.000 1000.000, 0.000 1000.000, 114.120 "
fill = "none" stroke = "black"/>
</g>
<g>
<polygon points = "433.948, 298.252 452.540, 352.396 445.806, 378.087 427.391, 402.403 388.701, 354.265 385.668, 309.300 "
fill = "none" stroke = "black"/>
</g>
<g>
<polygon points = "971.419, 300.920 884.288, 233.794 907.296, 185.056 922.639, 178.712 933.217, 182.781 983.581, 299.304 "
fill = "none" stroke = "black"/>
</g>
<g>
<polygon points = "317.426, 662.295 309.825, 640.703 302.349, 579.082 351.219, 532.253 389.131, 540.299 "
fill = "none" stroke = "black"/>
</g>
<g>
<polygon points = "492.609, 141.847 505.978, 139.736 549.789, 150.002 513.184, 212.663 447.415, 216.056 444.763, 204.179 477.940, 154.462 "
fill = "none" stroke = "black"/>
</g>
<g>
<polygon points = "464.336, 968.472 574.427, 886.183 580.476, 888.735 573.650, 929.875 492.312, 1000.000 483.171, 1000.000 "
fill = "none" stroke = "black"/>
</g>
<g>
<polygon points = "339.821, 154.520 378.536, 131.718 477.940, 154.462 444.763, 204.179 "
fill = "none" stroke = "black"/>
</g>
<g>
<polygon points = "768.656, 786.708 853.074, 781.730 739.751, 862.772 727.288, 852.940 720.758, 845.989 731.107, 794.610 "
fill = "none" stroke = "black"/>
</g>
<g>
<polygon points = "874.283, 776.361 868.386, 828.527 846.202, 846.453 744.703, 867.361 739.751, 862.772 853.074, 781.730 "
fill = "none" stroke = "black"/>
</g>
<g>
<polygon points = "665.624, 668.486 633.707, 732.254 602.099, 715.116 597.216, 626.148 606.754, 604.898 "
fill = "none" stroke = "black"/>
</g>
<g>
<polygon points = "474.822, 8.355 403.002, 69.483 394.806, 68.873 352.513, 0.000 477.144, 0.000 "
fill = "none" stroke = "black"/>
</g>
<g>
<polygon points = "165.900, 708.319 78.491, 711.723 69.703, 698.369 84.376, 645.093 84.542, 644.845 172.372, 671.896 "
fill = "none" stroke = "black"/>
</g>
<g>
<polygon points = "21.583, 888.894 30.265, 874.790 126.165, 836.808 150.763, 863.903 134.448, 905.966 "
fill = "none" stroke = "black"/>
</g>
<g>
<polygon points = "88.934, 627.950 24.068, 559.833 99.577, 510.439 102.585, 509.584 105.479, 595.105 "
fill = "none" stroke = "black"/>
</g>
<g>
<polygon points = "647.116, 956.179 727.288, 852.940 739.751, 862.772 744.703, 867.361 749.371, 875.484 711.342, 959.928 "
fill = "none" stroke = "black"/>
</g>
<g>
<polygon points = "326.929, 915.117 322.174, 820.551 434.727, 871.038 "
fill = "none" stroke = "black"/>
</g>
<g>
<polygon points = "983.581, 299.304 933.217, 182.781 1000.000, 178.584 1000.000, 300.872 "
fill = "none" stroke = "black"/>
</g>
<g>
<polygon points = "677.168, 538.901 671.124, 535.271 673.674, 471.396 721.573, 434.235 755.339, 445.354 740.743, 483.216 "
fill = "none" stroke = "black"/>
</g>
<g>
<polygon points = "279.684, 487.619 246.384, 472.012 231.475, 427.153 239.994, 411.382 335.715, 424.973 284.405, 487.827 "
fill = "none" stroke = "black"/>
</g>
<g>
<polygon points = "292.641, 717.720 296.297, 712.895 340.012, 766.901 330.517, 803.361 321.928, 819.921 297.227, 827.036 263.509, 790.362 "
fill = "none" stroke = "black"/>
</g>
<g>
<polygon points = "133.123, 444.581 96.418, 423.810 100.281, 320.344 154.890, 361.828 "
fill = "none" stroke = "black"/>
</g>
<g>
<polygon points = "230.604, 75.031 230.421, 87.321 221.164, 99.479 170.351, 98.269 158.263, 0.000 198.198, 0.000 "
fill = "none" stroke = "black"/>
</g>
<g>
<polygon points = "74.321, 180.574 71.930, 240.881 0.000, 246.656 0.000, 165.445 "
fill = "none" stroke = "black"/>
</g>
<g>
<polygon points = "438.656, 802.008 443.621, 779.291 534.132, 767.532 518.390, 836.814 450.630, 835.183 "
fill = "none" stroke = "black"/>
</g>
<g>
<polygon points = "533.886, 448.779 536.618, 441.621 574.277, 423.633 603.491, 413.099 614.489, 432.753 616.953, 441.797 599.591, 504.924 547.659, 482.014 "
fill = "none" stroke = "black"/>
</g>
<g>
<polygon points = "685.051, 385.487 668.392, 343.057 720.044, 335.453 761.134, 442.825 755.339, 445.354 721.573, 434.235 "
fill = "none" stroke = "black"/>
</g>
<g>
<polygon points = "293.386, 173.855 290.842, 201.422 280.157, 219.731 259.176, 234.610 240.492, 218.352 210.263, 153.028 241.870, 132.975 "
fill = "none" stroke = "black"/>
</g>
<g>
<polygon points = "866.994, 360.419 867.564, 363.929 799.111, 395.417 735.293, 319.993 733.975, 312.112 761.282, 310.053 "
fill = "none" stroke = "black"/>
</g>
<g>
<polygon points = "325.785, 507.298 390.043, 452.225 424.253, 477.108 391.934, 540.113 389.131, 540.299 351.219, 532.253 "
fill = "none" stroke = "black"/>
</g>
<g>
<polygon points = "170.351, 98.269 221.164, 99.479 241.870, 132.975 210.263, 153.028 129.914, 151.347 117.636, 144.553 119.155, 129.616 168.331, 98.555 "
fill = "none" stroke = "black"/>
</g>
<g>
<polygon points = "953.484, 320.680 866.617, 293.076 856.785, 265.301 856.495, 263.059 870.918, 234.567 884.288, 233.794 971.419, 300.920 "
fill = "none" stroke = "black"/>
</g>
<g>
<polygon points = "99.577, 510.439 24.068, 559.833 0.000, 559.401 0.000, 474.892 "
fill = "none" stroke = "black"/>
</g>
<g>
<polygon points = "284.405, 487.827 335.715, 424.973 351.438, 413.143 365.075, 414.578 390.043, 452.225 325.785, 507.298 "
fill = "none" stroke = "black"/>
</g>
<g>
<polygon points = "554.593, 734.579 536.682, 707.868 534.674, 690.698 545.155, 657.415 597.216, 626.148 602.099, 715.116 "
fill = "none" stroke = "black"/>
</g>
<g>
<polygon points = "867.524, 59.712 833.693, 0.000 935.822, 0.000 943.899, 46.847 "
fill = "none" stroke = "black"/>
</g>
<g>
<polygon points = "413.490, 667.197 419.444, 661.407 534.674, 690.698 536.682, 707.868 454.021, 740.367 "
fill = "none" stroke = "black"/>
</g>
<g>
<polygon points = "117.636, 144.553 74.321, 180.574 0.000, 165.445 0.000, 143.132 69.467, 113.648 119.155, 129.616 "
fill = "none" stroke = "black"/>
</g>
<g>
<polygon points = "966.393, 1000.000 959.864, 876.347 1000.000, 854.074 1000.000, 1000.000 "
fill = "none" stroke = "black"/>
</g>
<g>
<polygon points = "234.658, 963.163 277.312, 912.691 316.034, 956.287 319.414, 972.644 302.683, 1000.000 231.370, 1000.000 "
fill = "none" stroke = "black"/>
</g>
<g>
<polygon points = "590.636, 569.264 510.339, 520.649 547.659, 482.014 599.591, 504.924 615.344, 526.010 "
fill = "none" stroke = "black"/>
</g>
<g>
<polygon points = "296.995, 704.915 317.972, 673.390 363.412, 672.328 380.609, 687.854 367.853, 741.309 340.012, 766.901 296.297, 712.895 "
fill = "none" stroke = "black"/>
</g>
<g>
<polygon points = "969.878, 397.546 928.988, 379.905 953.484, 320.680 971.419, 300.920 983.581, 299.304 1000.000, 300.872 1000.000, 400.404 "
fill = "none" stroke = "black"/>
</g>
<g>
<polygon points = "931.788, 877.184 959.864, 876.347 966.393, 1000.000 938.261, 1000.000 909.987, 918.011 "
fill = "none" stroke = "black"/>
</g>
<g>
<polygon points = "626.028, 973.762 612.616, 1000.000 492.312, 1000.000 573.650, 929.875 "
fill = "none" stroke = "black"/>
</g>
<g>
<polygon points = "801.720, 49.472 778.359, 55.332 680.420, 9.485 678.361, 0.000 824.432, 0.000 "
fill = "none" stroke = "black"/>
</g>
<g>
<polygon points = "226.436, 567.396 253.568, 558.332 302.349, 579.082 309.825, 640.703 229.333, 623.538 217.616, 572.895 "
fill = "none" stroke = "black"/>
</g>
<g>
<polygon points = "571.535, 165.521 574.970, 166.632 667.550, 265.126 665.179, 271.890 575.784, 265.298 "
fill = "none" stroke = "black"/>
</g>
<g>
<polygon points = "848.069, 970.367 909.987, 918.011 938.261, 1000.000 849.452, 1000.000 "
fill = "none" stroke = "black"/>
</g>
<g>
<polygon points = "822.336, 121.837 813.144, 156.981 754.070, 115.940 747.550, 85.575 778.359, 55.332 801.720, 49.472 "
fill = "none" stroke = "black"/>
</g>
<g>
<polygon points = "193.527, 487.407 153.253, 491.171 124.952, 485.206 135.334, 461.555 215.540, 426.242 231.475, 427.153 246.384, 472.012 "
fill = "none" stroke = "black"/>
</g>
<g>
<polygon points = "409.158, 558.564 363.412, 672.328 317.972, 673.390 317.426, 662.295 389.131, 540.299 391.934, 540.113 "
fill = "none" stroke = "black"/>
</g>
<g>
<polygon points = "439.446, 872.341 450.630, 835.183 518.390, 836.814 528.547, 860.284 460.623, 928.466 "
fill = "none" stroke = "black"/>
</g>
<g>
<polygon points = "253.498, 365.990 280.091, 356.927 326.584, 379.021 351.438, 413.143 335.715, 424.973 239.994, 411.382 "
fill = "none" stroke = "black"/>
</g>
<g>
<polygon points = "207.171, 930.442 209.411, 860.235 269.931, 872.809 277.312, 912.691 234.658, 963.163 "
fill = "none" stroke = "black"/>
</g>
<g>
<polygon points = "611.247, 154.061 654.771, 182.190 688.951, 259.444 667.550, 265.126 574.970, 166.632 "
fill = "none" stroke = "black"/>
</g>
<g>
<polygon points = "110.092, 493.241 124.952, 485.206 153.253, 491.171 155.298, 576.974 146.146, 581.187 105.479, 595.105 102.585, 509.584 "
fill = "none" stroke = "black"/>
</g>
<g>
<polygon points = "307.962, 20.076 230.604, 75.031 198.198, 0.000 310.879, 0.000 "
fill = "none" stroke = "black"/>
</g>
<g>
<polygon points = "623.817, 65.281 648.219, 73.536 683.718, 138.991 654.771, 182.190 611.247, 154.061 "
fill = "none" stroke = "black"/>
</g>
<g>
<polygon points = "60.565, 777.959 83.735, 766.148 85.555, 768.952 126.165, 836.808 30.265, 874.790 "
fill = "none" stroke = "black"/>
</g>
<g>
<polygon points = "24.068, 559.833 88.934, 627.950 84.542, 644.845 84.376, 645.093 0.000, 636.502 0.000, 559.401 "
fill = "none" stroke = "black"/>
</g>
<g>
<polygon points = "326.675, 920.090 457.649, 944.246 457.361, 962.137 319.414, 972.644 316.034, 956.287 "
fill = "none" stroke = "black"/>
</g>
<g>
<polygon points = "279.684, 487.619 284.405, 487.827 325.785, 507.298 351.219, 532.253 302.349, 579.082 253.568, 558.332 "
fill = "none" stroke = "black"/>
</g>
<g>
<polygon points = "685.684, 833.927 676.311, 807.100 674.146, 763.860 717.342, 721.821 731.107, 794.610 720.758, 845.989 "
fill = "none" stroke = "black"/>
</g>
<g>
<polygon points = "88.934, 627.950 105.479, 595.105 146.146, 581.187 188.872, 668.966 172.372, 671.896 84.542, 644.845 "
fill = "none" stroke = "black"/>
</g>
<g>
<polygon points = "187.483, 209.304 240.492, 218.352 259.176, 234.610 251.484, 247.161 177.338, 299.653 159.263, 291.354 "
fill = "none" stroke = "black"/>
</g>
<g>
<polygon points = "468.163, 616.955 520.281, 591.250 602.161, 599.630 606.755, 604.873 606.754, 604.898 597.216, 626.148 545.155, 657.415 "
fill = "none" stroke = "black"/>
</g>
<g>
<polygon points = "87.184, 37.324 75.396, 49.730 0.000, 65.096 0.000, 0.000 95.022, 0.000 "
fill = "none" stroke = "black"/>
</g>
<g>
<polygon points = "246.717, 345.342 251.484, 247.161 259.176, 234.610 280.157, 219.731 290.581, 250.062 280.091, 356.927 253.498, 365.990 "
fill = "none" stroke = "black"/>
</g>
<g>
<polygon points = "906.777, 542.754 880.462, 530.057 858.811, 496.603 871.283, 485.049 940.212, 468.896 973.930, 515.077 "
fill = "none" stroke = "black"/>
</g>
<g>
<polygon points = "875.618, 706.205 881.958, 676.298 902.044, 671.684 958.096, 710.235 918.650, 768.797 884.316, 757.699 883.724, 757.016 "
fill = "none" stroke = "black"/>
</g>
<g>
<polygon points = "384.340, 307.195 342.270, 307.853 290.581, 250.062 280.157, 219.731 290.842, 201.422 372.667, 273.411 "
fill = "none" stroke = "black"/>
</g>
<g>
<polygon points = "480.534, 536.879 520.281, 591.250 468.163, 616.955 447.541, 618.052 418.965, 562.217 "
fill = "none" stroke = "black"/>
</g>
<g>
<polygon points = "652.624, 333.613 620.190, 338.472 581.935, 309.316 571.364, 286.638 575.784, 265.298 665.179, 271.890 "
fill = "none" stroke = "black"/>
</g>
<g>
<polygon points = "71.930, 240.881 91.373, 263.984 92.626, 266.747 84.038, 305.164 81.975, 307.254 0.000, 298.264 0.000, 246.656 "
fill = "none" stroke = "black"/>
</g>
<g>
<polygon points = "8.505, 404.808 110.092, 493.241 102.585, 509.584 99.577, 510.439 0.000, 474.892 0.000, 402.974 "
fill = "none" stroke = "black"/>
</g>
<g>
<polygon points = "984.415, 707.350 915.028, 614.593 920.390, 572.247 921.676, 570.703 1000.000, 597.128 1000.000, 706.773 "
fill = "none" stroke = "black"/>
</g>
<g>
<polygon points = "449.392, 264.945 479.889, 284.093 520.565, 338.322 511.846, 363.344 452.540, 352.396 433.948, 298.252 "
fill = "none" stroke = "black"/>
</g>
<g>
<polygon points = "703.293, 155.686 683.718, 138.991 648.219, 73.536 657.548, 67.329 747.550, 85.575 754.070, 115.940 "
fill = "none" stroke = "black"/>
</g>
<g>
<polygon points = "778.568, 639.027 777.143, 697.828 717.694, 721.120 710.493, 681.934 725.114, 639.699 760.068, 620.543 775.139, 621.536 "
fill = "none" stroke = "black"/>
</g>
<g>
<polygon points = "209.082, 840.593 203.981, 856.283 150.763, 863.903 126.165, 836.808 85.555, 768.952 "
fill = "none" stroke = "black"/>
</g>
<g>
<polygon points = "269.931, 872.809 209.411, 860.235 203.981, 856.283 209.082, 840.593 228.276, 797.049 263.509, 790.362 297.227, 827.036 "
fill = "none" stroke = "black"/>
</g>
<g>
<polygon points = "549.964, 149.957 571.535, 165.521 575.784, 265.298 571.364, 286.638 535.983, 251.275 513.184, 212.663 549.789, 150.002 "
fill = "none" stroke = "black"/>
</g>
<g>
<polygon points = "814.119, 931.432 791.895, 923.726 749.371, 875.484 744.703, 867.361 846.202, 846.453 "
fill = "none" stroke = "black"/>
</g>
<g>
<polygon points = "418.965, 562.217 447.541, 618.052 419.444, 661.407 413.490, 667.197 380.609, 687.854 363.412, 672.328 409.158, 558.564 "
fill = "none" stroke = "black"/>
</g>
<g>
<polygon points = "326.584, 379.021 342.270, 307.853 384.340, 307.195 385.668, 309.300 388.701, 354.265 365.075, 414.578 351.438, 413.143 "
fill = "none" stroke = "black"/>
</g>
<g>
<polygon points = "720.160, 276.784 793.394, 241.858 856.495, 263.059 856.785, 265.301 761.282, 310.053 733.975, 312.112 "
fill = "none" stroke = "black"/>
</g>
<g>
<polygon points = "595.298, 791.961 580.006, 847.590 563.826, 864.966 528.547, 860.284 518.390, 836.814 534.132, 767.532 536.514, 765.278 "
fill = "none" stroke = "black"/>
</g>
<g>
<polygon points = "614.489, 432.753 603.491, 413.099 620.190, 338.472 652.624, 333.613 668.392, 343.057 685.051, 385.487 "
fill = "none" stroke = "black"/>
</g>
<g>
<polygon points = "720.044, 335.453 735.293, 319.993 799.111, 395.417 797.377, 441.445 761.134, 442.825 "
fill = "none" stroke = "black"/>
</g>
<g>
<polygon points = "319.414, 972.644 457.361, 962.137 464.336, 968.472 483.171, 1000.000 302.683, 1000.000 "
fill = "none" stroke = "black"/>
</g>
<g>
<polygon points = "293.386, 173.855 241.870, 132.975 221.164, 99.479 230.421, 87.321 328.882, 118.660 325.279, 150.828 "
fill = "none" stroke = "black"/>
</g>
<g>
<polygon points = "685.051, 385.487 721.573, 434.235 673.674, 471.396 616.953, 441.797 614.489, 432.753 "
fill = "none" stroke = "black"/>
</g>
<g>
<polygon points = "673.674, 471.396 671.124, 535.271 615.344, 526.010 599.591, 504.924 616.953, 441.797 "
fill = "none" stroke = "black"/>
</g>
<g>
<polygon points = "973.930, 515.077 940.212, 468.896 969.878, 397.546 1000.000, 400.404 1000.000, 512.108 "
fill = "none" stroke = "black"/>
</g>
<g>
<polygon points = "514.500, 448.868 434.137, 475.550 431.898, 474.786 427.391, 402.403 445.806, 378.087 "
fill = "none" stroke = "black"/>
</g>
<g>
<polygon points = "134.499, 936.321 134.448, 905.966 150.763, 863.903 203.981, 856.283 209.411, 860.235 207.171, 930.442 "
fill = "none" stroke = "black"/>
</g>
<g>
<polygon points = "904.345, 842.113 926.502, 838.534 931.788, 877.184 909.987, 918.011 848.069, 970.367 835.951, 950.538 "
fill = "none" stroke = "black"/>
</g>
<g>
<polygon points = "447.541, 618.052 468.163, 616.955 545.155, 657.415 534.674, 690.698 419.444, 661.407 "
fill = "none" stroke = "black"/>
</g>
<g>
<polygon points = "457.361, 962.137 457.649, 944.246 460.623, 928.466 528.547, 860.284 563.826, 864.966 574.427, 886.183 464.336, 968.472 "
fill = "none" stroke = "black"/>
</g>
<g>
<polygon points = "88.460, 945.697 131.098, 946.303 179.303, 1000.000 40.323, 1000.000 "
fill = "none" stroke = "black"/>
</g>
<g>
<polygon points = "914.966, 120.402 872.904, 71.240 867.524, 59.712 943.899, 46.847 988.583, 111.997 "
fill = "none" stroke = "black"/>
</g>
<g>
<polygon points = "84.376, 645.093 69.703, 698.369 0.000, 718.387 0.000, 636.502 "
fill = "none" stroke = "black"/>
</g>
<g>
<polygon points = "438.656, 802.008 450.630, 835.183 439.446, 872.341 434.727, 871.038 322.174, 820.551 321.928, 819.921 330.517, 803.361 "
fill = "none" stroke = "black"/>
</g>
<g>
<polygon points = "372.667, 273.411 290.842, 201.422 293.386, 173.855 320.703, 154.132 385.563, 240.212 "
fill = "none" stroke = "black"/>
</g>
<g>
<polygon points = "646.636, 599.221 725.114, 639.699 710.493, 681.934 665.624, 668.486 606.754, 604.898 606.755, 604.873 "
fill = "none" stroke = "black"/>
</g>
<g>
<polygon points = "84.038, 305.164 92.626, 266.747 159.263, 291.354 177.338, 299.653 175.684, 332.999 168.204, 350.514 154.890, 361.828 100.281, 320.344 "
fill = "none" stroke = "black"/>
</g>
<g>
<polygon points = "884.316, 757.699 918.650, 768.797 955.872, 793.381 926.502, 838.534 904.345, 842.113 868.386, 828.527 874.283, 776.361 "
fill = "none" stroke = "black"/>
</g>
<g>
<polygon points = "168.204, 350.514 175.684, 332.999 246.717, 345.342 253.498, 365.990 239.994, 411.382 231.475, 427.153 215.540, 426.242 "
fill = "none" stroke = "black"/>
</g>
<g>
<polygon points = "494.398, 520.033 510.339, 520.649 590.636, 569.264 602.161, 599.630 520.281, 591.250 480.534, 536.879 "
fill = "none" stroke = "black"/>
</g>
<g>
<polygon points = "758.737, 992.224 791.895, 923.726 814.119, 931.432 835.951, 950.538 848.069, 970.367 849.452, 1000.000 760.452, 1000.000 "
fill = "none" stroke = "black"/>
</g>
<g>
<polygon points = "21.820, 396.126 96.418, 423.810 133.123, 444.581 135.334, 461.555 124.952, 485.206 110.092, 493.241 8.505, 404.808 "
fill = "none" stroke = "black"/>
</g>
<g>
<polygon points = "594.585, 42.051 623.817, 65.281 611.247, 154.061 574.970, 166.632 571.535, 165.521 549.964, 149.957 "
fill = "none" stroke = "black"/>
</g>
<g>
<polygon points = "290.581, 250.062 342.270, 307.853 326.584, 379.021 280.091, 356.927 "
fill = "none" stroke = "black"/>
</g>
<g>
<polygon points = "21.583, 888.894 134.448, 905.966 134.499, 936.321 131.098, 946.303 88.460, 945.697 0.000, 909.977 0.000, 904.361 "
fill = "none" stroke = "black"/>
</g>
<g>
<polygon points = "170.351, 98.269 168.331, 98.555 87.184, 37.324 95.022, 0.000 158.263, 0.000 "
fill = "none" stroke = "black"/>
</g>
<g>
<polygon points = "836.382, 125.849 872.904, 71.240 914.966, 120.402 922.639, 178.712 907.296, 185.056 "
fill = "none" stroke = "black"/>
</g>
<g>
<polygon points = "117.636, 144.553 129.914, 151.347 137.912, 190.210 91.373, 263.984 71.930, 240.881 74.321, 180.574 "
fill = "none" stroke = "black"/>
</g>
<g>
<polygon points = "805.204, 587.255 795.719, 607.532 775.139, 621.536 760.068, 620.543 716.258, 570.088 792.141, 529.628 794.264, 529.791 "
fill = "none" stroke = "black"/>
</g>
<g>
<polygon points = "652.624, 333.613 665.179, 271.890 667.550, 265.126 688.951, 259.444 714.513, 269.832 720.160, 276.784 733.975, 312.112 735.293, 319.993 720.044, 335.453 668.392, 343.057 "
fill = "none" stroke = "black"/>
</g>
<g>
<polygon points = "813.488, 159.105 813.144, 156.981 822.336, 121.837 836.382, 125.849 907.296, 185.056 884.288, 233.794 870.918, 234.567 "
fill = "none" stroke = "black"/>
</g>
<g>
<polygon points = "813.488, 159.105 781.741, 189.568 719.138, 186.864 703.293, 155.686 754.070, 115.940 813.144, 156.981 "
fill = "none" stroke = "black"/>
</g>
<g>
<polygon points = "431.898, 474.786 434.137, 475.550 494.398, 520.033 480.534, 536.879 418.965, 562.217 409.158, 558.564 391.934, 540.113 424.253, 477.108 "
fill = "none" stroke = "black"/>
</g>
<g>
<polygon points = "813.571, 719.503 883.724, 757.016 884.316, 757.699 874.283, 776.361 853.074, 781.730 768.656, 786.708 "
fill = "none" stroke = "black"/>
</g>
<g>
<polygon points = "75.396, 49.730 69.467, 113.648 0.000, 143.132 0.000, 65.096 "
fill = "none" stroke = "black"/>
</g>
<g>
<polygon points = "647.593, 871.862 641.881, 957.334 626.028, 973.762 573.650, 929.875 580.476, 888.735 "
fill = "none" stroke = "black"/>
</g>
<g>
<polygon points = "189.078, 724.693 210.751, 782.788 86.074, 737.476 78.491, 711.723 165.900, 708.319 "
fill = "none" stroke = "black"/>
</g>
<g>
<polygon points = "933.217, 182.781 922.639, 178.712 914.966, 120.402 988.583, 111.997 1000.000, 114.120 1000.000, 178.584 "
fill = "none" stroke = "black"/>
</g>
<g>
<polygon points = "793.394, 241.858 781.741, 189.568 813.488, 159.105 870.918, 234.567 856.495, 263.059 "
fill = "none" stroke = "black"/>
</g>
<g>
<polygon points = "175.684, 332.999 177.338, 299.653 251.484, 247.161 246.717, 345.342 "
fill = "none" stroke = "black"/>
</g>
<g>
<polygon points = "309.825, 640.703 317.426, 662.295 317.972, 673.390 296.995, 704.915 217.705, 667.244 229.333, 623.538 "
fill = "none" stroke = "black"/>
</g>
<g>
<polygon points = "711.342, 959.928 749.371, 875.484 791.895, 923.726 758.737, 992.224 "
fill = "none" stroke = "black"/>
</g>
<g>
<polygon points = "895.652, 377.332 820.940, 465.332 797.377, 441.445 799.111, 395.417 867.564, 363.929 "
fill = "none" stroke = "black"/>
</g>
<g>
<polygon points = "626.028, 973.762 641.881, 957.334 647.116, 956.179 711.342, 959.928 758.737, 992.224 760.452, 1000.000 612.616, 1000.000 "
fill = "none" stroke = "black"/>
</g>
<g>
<polygon points = "81.975, 307.254 21.820, 396.126 8.505, 404.808 0.000, 402.974 0.000, 298.264 "
fill = "none" stroke = "black"/>
</g>
<g>
<polygon points = "955.872, 793.381 918.650, 768.797 958.096, 710.235 984.415, 707.350 1000.000, 706.773 1000.000, 790.921 "
fill = "none" stroke = "black"/>
</g>
<g>
<polygon points = "959.864, 876.347 931.788, 877.184 926.502, 838.534 955.872, 793.381 1000.000, 790.921 1000.000, 854.074 "
fill = "none" stroke = "black"/>
</g>
<g>
<polygon points = "958.096, 710.235 902.044, 671.684 915.028, 614.593 984.415, 707.350 "
fill = "none" stroke = "black"/>
</g>
<g>
<polygon points = "86.074, 737.476 210.751, 782.788 228.276, 797.049 209.082, 840.593 85.555, 768.952 83.735, 766.148 "
fill = "none" stroke = "black"/>
</g>
<g>
<polygon points = "457.649, 944.246 326.675, 920.090 326.929, 915.117 434.727, 871.038 439.446, 872.341 460.623, 928.466 "
fill = "none" stroke = "black"/>
</g>
<g>
<polygon points = "394.806, 68.873 327.493, 85.227 307.962, 20.076 310.879, 0.000 352.513, 0.000 "
fill = "none" stroke = "black"/>
</g>
<g>
<polygon points = "875.618, 706.205 883.724, 757.016 813.571, 719.503 777.143, 697.828 778.568, 639.027 "
fill = "none" stroke = "black"/>
</g>
<g>
<polygon points = "153.253, 491.171 193.527, 487.407 226.436, 567.396 217.616, 572.895 155.298, 576.974 "
fill = "none" stroke = "black"/>
</g>
<g>
<polygon points = "832.257, 615.612 881.958, 676.298 875.618, 706.205 778.568, 639.027 772.221, 606.650 782.399, 604.587 "
fill = "none" stroke = "black"/>
</g>
<g>
<polygon points = "716.258, 570.088 760.068, 620.543 725.114, 639.699 646.636, 599.221 683.655, 552.269 "
fill = "none" stroke = "black"/>
</g>
<g>
<polygon points = "447.200, 216.654 385.563, 240.212 320.703, 154.132 321.625, 152.944 339.821, 154.520 444.763, 204.179 447.415, 216.056 "
fill = "none" stroke = "black"/>
</g>
<g>
<polygon points = "680.420, 9.485 778.359, 55.332 747.550, 85.575 657.548, 67.329 "
fill = "none" stroke = "black"/>
</g>
<g>
<polygon points = "614.314, 12.628 598.876, 31.674 543.937, 52.543 488.202, 23.880 474.822, 8.355 477.144, 0.000 613.631, 0.000 "
fill = "none" stroke = "black"/>
</g>
<g>
<polygon points = "296.995, 704.915 296.297, 712.895 292.641, 717.720 189.078, 724.693 165.900, 708.319 172.372, 671.896 188.872, 668.966 217.705, 667.244 "
fill = "none" stroke = "black"/>
</g>
<g>
<polygon points = "543.937, 52.543 598.876, 31.674 549.964, 149.957 549.789, 150.002 505.978, 139.736 "
fill = "none" stroke = "black"/>
</g>
<g>
<polygon points = "193.527, 487.407 246.384, 472.012 279.684, 487.619 253.568, 558.332 226.436, 567.396 "
fill = "none" stroke = "black"/>
</g>
<g>
<polygon points = "719.138, 186.864 781.741, 189.568 793.394, 241.858 720.160, 276.784 714.513, 269.832 "
fill = "none" stroke = "black"/>
</g>
<g>
<polygon points = "307.962, 20.076 327.493, 85.227 313.874, 113.883 230.421, 87.321 230.604, 75.031 "
fill = "none" stroke = "black"/>
</g>
<g>
<polygon points = "137.912, 190.210 187.483, 209.304 159.263, 291.354 92.626, 266.747 91.373, 263.984 "
fill = "none" stroke = "black"/>
</g>
<g>
<polygon points = "777.143, 697.828 813.571, 719.503 768.656, 786.708 731.107, 794.610 717.243, 721.297 "
fill = "none" stroke = "black"/>
</g>
<g>
<polygon points = "131.098, 946.303 134.499, 936.321 207.171, 930.442 234.658, 963.163 231.370, 1000.000 179.303, 1000.000 "
fill = "none" stroke = "black"/>
</g>
<g>
<polygon points = "923.995, 380.965 871.283, 485.049 858.811, 496.603 830.525, 480.586 820.940, 465.332 895.652, 377.332 "
fill = "none" stroke = "black"/>
</g>
<g>
<polygon points = "867.524, 59.712 872.904, 71.240 836.382, 125.849 822.336, 121.837 801.720, 49.472 824.432, 0.000 833.693, 0.000 "
fill = "none" stroke = "black"/>
</g>
<g>
<polygon points = "434.137, 475.550 514.500, 448.868 533.886, 448.779 547.659, 482.014 510.339, 520.649 494.398, 520.033 "
fill = "none" stroke = "black"/>
</g>
<g>
<polygon points = "137.912, 190.210 129.914, 151.347 210.263, 153.028 240.492, 218.352 187.483, 209.304 "
fill = "none" stroke = "black"/>
</g>
<g>
<polygon points = "920.390, 572.247 915.028, 614.593 902.044, 671.684 881.958, 676.298 832.257, 615.612 "
fill = "none" stroke = "black"/>
</g>
<g>
<polygon points = "69.703, 698.369 78.491, 711.723 86.074, 737.476 83.735, 766.148 60.565, 777.959 0.000, 762.158 0.000, 718.387 "
fill = "none" stroke = "black"/>
</g>
<g>
<polygon points = "856.785, 265.301 866.617, 293.076 866.994, 360.419 761.282, 310.053 "
fill = "none" stroke = "black"/>
</g>
<g>
<polygon points = "488.202, 23.880 474.112, 118.167 403.882, 71.325 403.002, 69.483 474.822, 8.355 "
fill = "none" stroke = "black"/>
</g>
<g>
<polygon points = "321.625, 152.944 313.874, 113.883 327.493, 85.227 394.806, 68.873 403.002, 69.483 403.882, 71.325 378.536, 131.718 339.821, 154.520 "
fill = "none" stroke = "black"/>
</g>
<g>
<polygon points = "710.493, 681.934 717.694, 721.120 717.342, 721.821 674.146, 763.860 652.731, 753.173 633.707, 732.254 665.624, 668.486 "
fill = "none" stroke = "black"/>
</g>
<g>
<polygon points = "384.340, 307.195 372.667, 273.411 385.563, 240.212 447.200, 216.654 449.392, 264.945 433.948, 298.252 385.668, 309.300 "
fill = "none" stroke = "black"/>
</g>
<g>
<polygon points = "683.655, 552.269 646.636, 599.221 606.755, 604.873 602.161, 599.630 590.636, 569.264 615.344, 526.010 671.124, 535.271 677.168, 538.901 "
fill = "none" stroke = "black"/>
</g>
<g>
<polygon points = "326.675, 920.090 316.034, 956.287 277.312, 912.691 269.931, 872.809 297.227, 827.036 321.928, 819.921 322.174, 820.551 326.929, 915.117 "
fill = "none" stroke = "black"/>
</g>
<g>
<polygon points = "437.469, 771.811 454.021, 740.367 536.682, 707.868 554.593, 734.579 536.514, 765.278 534.132, 767.532 443.621, 779.291 "
fill = "none" stroke = "black"/>
</g>
<g>
<polygon points = "921.676, 570.703 920.390, 572.247 832.257, 615.612 795.719, 607.532 805.204, 587.255 880.462, 530.057 906.777, 542.754 "
fill = "none" stroke = "black"/>
</g>
<g>
<polygon points = "714.513, 269.832 688.951, 259.444 654.771, 182.190 683.718, 138.991 703.293, 155.686 719.138, 186.864 "
fill = "none" stroke = "black"/>
</g>
<g>
<polygon points = "60.565, 777.959 30.265, 874.790 21.583, 888.894 0.000, 904.361 0.000, 762.158 "
fill = "none" stroke = "black"/>
</g>
<g>
<polygon points = "563.826, 864.966 580.006, 847.590 676.311, 807.100 685.684, 833.927 647.593, 871.862 580.476, 888.735 574.427, 886.183 "
fill = "none" stroke = "black"/>
</g>
<g>
<polygon points = "367.853, 741.309 437.469, 771.811 443.621, 779.291 438.656, 802.008 330.517, 803.361 340.012, 766.901 "
fill = "none" stroke = "black"/>
</g>
<g>
<polygon points = "511.846, 363.344 536.618, 441.621 533.886, 448.779 514.500, 448.868 445.806, 378.087 452.540, 352.396 "
fill = "none" stroke = "black"/>
</g>
<g>
<polygon points = "716.258, 570.088 683.655, 552.269 677.168, 538.901 740.743, 483.216 792.141, 529.628 "
fill = "none" stroke = "black"/>
</g>
<g>
<polygon points = "21.820, 396.126 81.975, 307.254 84.038, 305.164 100.281, 320.344 96.418, 423.810 "
fill = "none" stroke = "black"/>
</g>
<g>
<polygon points = "641.881, 957.334 647.593, 871.862 685.684, 833.927 720.758, 845.989 727.288, 852.940 647.116, 956.179 "
fill = "none" stroke = "black"/>
</g>
<g>
<polygon points = "168.204, 350.514 215.540, 426.242 135.334, 461.555 133.123, 444.581 154.890, 361.828 "
fill = "none" stroke = "black"/>
</g>
<g>
<polygon points = "595.298, 791.961 536.514, 765.278 554.593, 734.579 602.099, 715.116 633.707, 732.254 652.731, 753.173 "
fill = "none" stroke = "black"/>
</g>
<g>
<polygon points = "413.490, 667.197 454.021, 740.367 437.469, 771.811 367.853, 741.309 380.609, 687.854 "
fill = "none" stroke = "black"/>
</g>
<g>
<polygon points = "940.212, 468.896 871.283, 485.049 923.995, 380.965 928.988, 379.905 969.878, 397.546 "
fill = "none" stroke = "black"/>
</g>
<g>
<polygon points = "556.973, 323.175 520.565, 338.322 479.889, 284.093 535.983, 251.275 571.364, 286.638 581.935, 309.316 "
fill = "none" stroke = "black"/>
</g>
<g>
<polygon points = "474.112, 118.167 488.202, 23.880 543.937, 52.543 505.978, 139.736 492.609, 141.847 "
fill = "none" stroke = "black"/>
</g>
<g>
<polygon points = "680.420, 9.485 657.548, 67.329 648.219, 73.536 623.817, 65.281 594.585, 42.051 592.080, 34.255 592.087, 0.000 678.361, 0.000 "
fill = "none" stroke = "black"/>
</g>
<g>
<polygon points = "904.345, 842.113 835.951, 950.538 814.119, 931.432 846.202, 846.453 868.386, 828.527 "
fill = "none" stroke = "black"/>
</g>
<g>
<polygon points = "556.973, 323.175 581.935, 309.316 620.190, 338.472 603.491, 413.099 574.277, 423.633 "
fill = "none" stroke = "black"/>
</g>
<g>
<polygon points = "928.988, 379.905 923.995, 380.965 895.652, 377.332 867.564, 363.929 866.994, 360.419 866.617, 293.076 953.484, 320.680 "
fill = "none" stroke = "black"/>
</g>
<g>
<polygon points = "921.676, 570.703 906.777, 542.754 973.930, 515.077 1000.000, 512.108 1000.000, 597.128 "
fill = "none" stroke = "black"/>
</g>
<g>
<polygon points = "403.882, 71.325 474.112, 118.167 492.609, 141.847 477.940, 154.462 378.536, 131.718 "
fill = "none" stroke = "black"/>
</g>
<g>
<polygon points = "88.460, 945.697 40.323, 1000.000 0.000, 1000.000 0.000, 909.977 "
fill = "none" stroke = "black"/>
</g>
<g>
<polygon points = "580.006, 847.590 595.298, 791.961 652.731, 753.173 674.146, 763.860 676.311, 807.100 "
fill = "none" stroke = "black"/>
</g>
<g>
<polygon points = "511.846, 363.344 520.565, 338.322 556.973, 323.175 574.277, 423.633 536.618, 441.621 "
fill = "none" stroke = "black"/>
</g>
<g>
<polygon points = "292.641, 717.720 263.509, 790.362 228.276, 797.049 210.751, 782.788 189.078, 724.693 "
fill = "none" stroke = "black"/>
</g>
<g>
<polygon points = "447.200, 216.654 447.415, 216.056 513.184, 212.663 535.983, 251.275 479.889, 284.093 449.392, 264.945 "
fill = "none" stroke = "black"/>
</g>
<g>
<polygon points = "431.898, 474.786 424.253, 477.108 390.043, 452.225 365.075, 414.578 388.701, 354.265 427.391, 402.403 "
fill = "none" stroke = "black"/>
</g>
<g>
<circle cx = "85.032" cy = "108.389" r = "3" />
<circle cx = "189.690" cy = "601.992" r = "3" />
<circle cx = "743.512" cy = "439.610" r = "3" />
<circle cx = "809.567" cy = "488.287" r = "3" />
<circle cx = "995.085" cy = "33.389" r = "3" />
<circle cx = "426.051" cy = "347.001" r = "3" />
<circle cx = "961.533" cy = "142.013" r = "3" />
<circle cx = "294.026" cy = "585.355" r = "3" />
<circle cx = "514.893" cy = "210.215" r = "3" />
<circle cx = "544.273" cy = "906.370" r = "3" />
<circle cx = "432.260" cy = "155.073" r = "3" />
<circle cx = "772.846" cy = "808.141" r = "3" />
<circle cx = "780.367" cy = "818.657" r = "3" />
<circle cx = "579.141" cy = "685.869" r = "3" />
<circle cx = "411.985" cy = "7.695" r = "3" />
<circle cx = "163.922" cy = "665.152" r = "3" />
<circle cx = "76.218" cy = "825.476" r = "3" />
<circle cx = "37.300" cy = "532.585" r = "3" />
<circle cx = "674.113" cy = "933.297" r = "3" />
<circle cx = "389.782" cy = "834.601" r = "3" />
<circle cx = "990.804" cy = "129.361" r = "3" />
<circle cx = "672.653" cy = "412.294" r = "3" />
<circle cx = "255.014" cy = "406.955" r = "3" />
<circle cx = "271.720" cy = "729.519" r = "3" />
<circle cx = "95.930" cy = "367.444" r = "3" />
<circle cx = "151.273" cy = "51.138" r = "3" />
<circle cx = "42.604" cy = "264.911" r = "3" />
<circle cx = "465.497" cy = "777.460" r = "3" />
<circle cx = "571.484" cy = "395.431" r = "3" />
<circle cx = "698.002" cy = "335.314" r = "3" />
<circle cx = "173.652" cy = "248.505" r = "3" />
<circle cx = "824.917" cy = "246.904" r = "3" />
<circle cx = "319.049" cy = "467.449" r = "3" />
<circle cx = "147.554" cy = "207.372" r = "3" />
<circle cx = "912.531" cy = "205.619" r = "3" />
<circle cx = "9.408" cy = "489.947" r = "3" />
<circle cx = "295.594" cy = "440.081" r = "3" />
<circle cx = "504.173" cy = "689.984" r = "3" />
<circle cx = "982.579" cy = "35.545" r = "3" />
<circle cx = "448.564" cy = "696.486" r = "3" />
<circle cx = "56.208" cy = "198.081" r = "3" />
<circle cx = "983.813" cy = "948.937" r = "3" />
<circle cx = "239.803" cy = "895.301" r = "3" />
<circle cx = "534.797" cy = "478.593" r = "3" />
<circle cx = "329.979" cy = "682.362" r = "3" />
<circle cx = "977.858" cy = "264.913" r = "3" />
<circle cx = "953.617" cy = "950.532" r = "3" />
<circle cx = "572.538" cy = "939.155" r = "3" />
<circle cx = "811.628" cy = "20.814" r = "3" />
<circle cx = "225.825" cy = "593.631" r = "3" />
<circle cx = "619.046" cy = "245.444" r = "3" />
<circle cx = "915.988" cy = "963.508" r = "3" />
<circle cx = "830.576" cy = "96.357" r = "3" />
<circle cx = "175.992" cy = "433.217" r = "3" />
<circle cx = "328.182" cy = "605.431" r = "3" />
<circle cx = "464.552" cy = "816.732" r = "3" />
<circle cx = "257.500" cy = "389.451" r = "3" />
<circle cx = "196.504" cy = "858.707" r = "3" />
<circle cx = "669.344" cy = "198.167" r = "3" />
<circle cx = "155.896" cy = "528.572" r = "3" />
<circle cx = "255.728" cy = "6.022" r = "3" />
<circle cx = "698.761" cy = "152.649" r = "3" />
<circle cx = "69.381" cy = "808.214" r = "3" />
<circle cx = "8.147" cy = "560.347" r = "3" />
<circle cx = "389.613" cy = "864.343" r = "3" />
<circle cx = "249.231" cy = "538.608" r = "3" />
<circle cx = "698.389" cy = "793.143" r = "3" />
<circle cx = "182.262" cy = "605.607" r = "3" />
<circle cx = "142.462" cy = "284.348" r = "3" />
<circle cx = "473.120" cy = "638.280" r = "3" />
<circle cx = "0.310" cy = "27.891" r = "3" />
<circle cx = "242.597" cy = "345.720" r = "3" />
<circle cx = "940.200" cy = "403.743" r = "3" />
<circle cx = "903.858" cy = "668.468" r = "3" />
<circle cx = "304.043" cy = "324.602" r = "3" />
<circle cx = "449.785" cy = "590.968" r = "3" />
<circle cx = "618.305" cy = "255.495" r = "3" />
<circle cx = "47.345" cy = "323.963" r = "3" />
<circle cx = "18.198" cy = "465.325" r = "3" />
<circle cx = "938.174" cy = "621.956" r = "3" />
<circle cx = "492.311" cy = "324.249" r = "3" />
<circle cx = "784.188" cy = "106.318" r = "3" />
<circle cx = "727.119" cy = "678.486" r = "3" />
<circle cx = "145.237" cy = "762.817" r = "3" />
<circle cx = "211.923" cy = "784.497" r = "3" />
<circle cx = "578.177" cy = "247.184" r = "3" />
<circle cx = "790.235" cy = "866.562" r = "3" />
<circle cx = "380.455" cy = "626.450" r = "3" />
<circle cx = "304.522" cy = "355.201" r = "3" />
<circle cx = "822.678" cy = "217.212" r = "3" />
<circle cx = "524.381" cy = "790.840" r = "3" />
<circle cx = "634.027" cy = "360.433" r = "3" />
<circle cx = "738.946" cy = "319.646" r = "3" />
<circle cx = "399.406" cy = "992.914" r = "3" />
<circle cx = "262.852" cy = "136.099" r = "3" />
<circle cx = "644.201" cy = "375.622" r = "3" />
<circle cx = "626.034" cy = "410.433" r = "3" />
<circle cx = "966.505" cy = "384.536" r = "3" />
<circle cx = "468.280" cy = "378.983" r = "3" />
<circle cx = "158.794" cy = "857.504" r = "3" />
<circle cx = "865.010" cy = "903.219" r = "3" />
<circle cx = "454.215" cy = "674.252" r = "3" />
<circle cx = "514.359" cy = "866.350" r = "3" />
<circle cx = "69.747" cy = "970.467" r = "3" />
<circle cx = "983.548" cy = "41.301" r = "3" />
<circle cx = "2.016" cy = "620.560" r = "3" />
<circle cx = "405.739" cy = "799.030" r = "3" />
<circle cx = "356.173" cy = "265.350" r = "3" />
<circle cx = "625.217" cy = "643.212" r = "3" />
<circle cx = "117.113" cy = "339.559" r = "3" />
<circle cx = "852.671" cy = "826.831" r = "3" />
<circle cx = "179.815" cy = "366.339" r = "3" />
<circle cx = "480.240" cy = "568.704" r = "3" />
<circle cx = "753.998" cy = "971.065" r = "3" />
<circle cx = "82.045" cy = "391.981" r = "3" />
<circle cx = "651.240" cy = "145.920" r = "3" />
<circle cx = "276.690" cy = "349.067" r = "3" />
<circle cx = "71.351" cy = "857.653" r = "3" />
<circle cx = "125.875" cy = "54.262" r = "3" />
<circle cx = "936.528" cy = "81.530" r = "3" />
<circle cx = "114.143" cy = "267.747" r = "3" />
<circle cx = "738.761" cy = "501.767" r = "3" />
<circle cx = "688.348" cy = "269.741" r = "3" />
<circle cx = "907.376" cy = "116.446" r = "3" />
<circle cx = "805.097" cy = "133.031" r = "3" />
<circle cx = "420.333" cy = "519.402" r = "3" />
<circle cx = "771.371" cy = "783.122" r = "3" />
<circle cx = "15.399" cy = "101.929" r = "3" />
<circle cx = "593.205" cy = "914.489" r = "3" />
<circle cx = "165.678" cy = "710.234" r = "3" />
<circle cx = "987.377" cy = "74.838" r = "3" />
<circle cx = "839.067" cy = "168.432" r = "3" />
<circle cx = "183.894" cy = "342.870" r = "3" />
<circle cx = "222.198" cy = "610.641" r = "3" />
<circle cx = "700.861" cy = "945.343" r = "3" />
<circle cx = "860.483" cy = "324.224" r = "3" />
<circle cx = "670.838" cy = "989.403" r = "3" />
<circle cx = "45.955" cy = "336.632" r = "3" />
<circle cx = "940.818" cy = "693.364" r = "3" />
<circle cx = "951.851" cy = "891.342" r = "3" />
<circle cx = "933.384" cy = "625.538" r = "3" />
<circle cx = "148.801" cy = "756.672" r = "3" />
<circle cx = "393.446" cy = "843.561" r = "3" />
<circle cx = "384.292" cy = "24.700" r = "3" />
<circle cx = "826.041" cy = "680.884" r = "3" />
<circle cx = "184.839" cy = "527.882" r = "3" />
<circle cx = "843.494" cy = "655.671" r = "3" />
<circle cx = "665.252" cy = "565.593" r = "3" />
<circle cx = "393.320" cy = "237.361" r = "3" />
<circle cx = "793.802" cy = "58.895" r = "3" />
<circle cx = "516.577" cy = "36.768" r = "3" />
<circle cx = "193.779" cy = "670.457" r = "3" />
<circle cx = "540.672" cy = "100.199" r = "3" />
<circle cx = "201.562" cy = "521.002" r = "3" />
<circle cx = "803.223" cy = "176.420" r = "3" />
<circle cx = "289.239" cy = "53.194" r = "3" />
<circle cx = "138.060" cy = "282.834" r = "3" />
<circle cx = "766.961" cy = "780.175" r = "3" />
<circle cx = "161.285" cy = "888.293" r = "3" />
<circle cx = "888.836" cy = "348.296" r = "3" />
<circle cx = "920.424" cy = "70.760" r = "3" />
<circle cx = "485.562" cy = "431.036" r = "3" />
<circle cx = "146.430" cy = "261.103" r = "3" />
<circle cx = "891.826" cy = "616.087" r = "3" />
<circle cx = "38.523" cy = "747.677" r = "3" />
<circle cx = "830.802" cy = "234.551" r = "3" />
<circle cx = "470.517" cy = "76.465" r = "3" />
<circle cx = "404.527" cy = "107.985" r = "3" />
<circle cx = "608.089" cy = "700.357" r = "3" />
<circle cx = "412.360" cy = "287.177" r = "3" />
<circle cx = "607.795" cy = "520.291" r = "3" />
<circle cx = "303.242" cy = "838.953" r = "3" />
<circle cx = "458.142" cy = "720.850" r = "3" />
<circle cx = "864.520" cy = "560.592" r = "3" />
<circle cx = "727.976" cy = "172.225" r = "3" />
<circle cx = "26.251" cy = "794.718" r = "3" />
<circle cx = "573.655" cy = "836.722" r = "3" />
<circle cx = "405.304" cy = "764.305" r = "3" />
<circle cx = "485.246" cy = "362.517" r = "3" />
<circle cx = "719.688" cy = "465.993" r = "3" />
<circle cx = "91.216" cy = "367.268" r = "3" />
<circle cx = "655.232" cy = "918.635" r = "3" />
<circle cx = "153.727" cy = "382.646" r = "3" />
<circle cx = "535.478" cy = "766.393" r = "3" />
<circle cx = "430.678" cy = "706.393" r = "3" />
<circle cx = "932.374" cy = "370.345" r = "3" />
<circle cx = "527.628" cy = "297.759" r = "3" />
<circle cx = "494.331" cy = "80.024" r = "3" />
<circle cx = "737.948" cy = "36.810" r = "3" />
<circle cx = "831.739" cy = "882.231" r = "3" />
<circle cx = "552.269" cy = "342.139" r = "3" />
<circle cx = "903.466" cy = "234.145" r = "3" />
<circle cx = "979.569" cy = "499.262" r = "3" />
<circle cx = "439.660" cy = "122.730" r = "3" />
<circle cx = "37.382" cy = "941.777" r = "3" />
<circle cx = "558.282" cy = "800.159" r = "3" />
<circle cx = "546.504" cy = "343.132" r = "3" />
<circle cx = "195.703" cy = "699.033" r = "3" />
<circle cx = "518.615" cy = "282.353" r = "3" />
<circle cx = "379.368" cy = "384.521" r = "3" />
</g>
</svg>
